<svg width="9" height="11" viewBox="0 0 7 11" fill="none" xmlns="http://www.w3.org/2000/svg">
<path d="M1.32161 0.476729C1.1783 0.473577 1.03757 0.515122 0.918977 0.595651C0.800387 0.67618 0.709834 0.791714 0.659908 0.926086C0.609982 1.06046 0.603163 1.20703 0.6404 1.34545C0.677637 1.48388 0.757078 1.60721 0.86768 1.6984L5.08778 5.3137L0.86768 8.92772C0.791171 8.98395 0.727097 9.05534 0.67947 9.13748C0.631842 9.21963 0.601688 9.31074 0.590896 9.40508C0.580103 9.49941 0.588905 9.59494 0.616749 9.68572C0.644593 9.77649 0.69088 9.86057 0.752712 9.93263C0.814543 10.0047 0.890587 10.0631 0.976081 10.1044C1.06158 10.1458 1.15468 10.169 1.24956 10.1726C1.34444 10.1763 1.43905 10.1604 1.52747 10.1258C1.6159 10.0912 1.69622 10.0387 1.76342 9.97161L6.59505 5.83767C6.67093 5.77292 6.73185 5.69255 6.77363 5.60197C6.81541 5.5114 6.83705 5.41281 6.83705 5.31306C6.83705 5.21331 6.81541 5.11473 6.77363 5.02415C6.73185 4.93357 6.67093 4.85312 6.59505 4.78837L1.76342 0.650458C1.64137 0.542046 1.48482 0.48057 1.32161 0.476729Z" fill="white"/>
</svg>
