<svg width="32" height="32" viewBox="0 0 32 32" fill="none" xmlns="http://www.w3.org/2000/svg">
<g clip-path="url(#clip0_28_299)">
<path d="M28.3137 19.0295L28.1615 19.1115C27.4994 18.3166 26.3587 18.0097 25.4895 18.4503L25.4801 18.4553L25.1052 18.6571C24.1628 17.8647 22.8253 17.746 21.7582 18.3605L19.6945 19.4825H16.9474C16.3541 19.4817 15.7685 19.3475 15.2339 19.0899L14.8555 18.9069C12.654 17.8356 10.0375 18.0912 8.08479 19.5682C8.07536 19.5751 8.06649 19.5823 8.05762 19.5904L7.14405 20.4036C6.80412 20.7055 6.40293 20.9307 5.96791 21.0629L5.45304 19.3744C5.39842 19.195 5.23317 19.0727 5.04574 19.0727H0.627598C0.505604 19.0725 0.389432 19.1249 0.308749 19.2161C0.227789 19.3073 0.190082 19.429 0.204776 19.5499L1.67758 31.6257C1.70365 31.8395 1.88497 32 2.1004 32H8.7272C8.86223 32 8.98921 31.9359 9.06962 31.8275C9.14975 31.7191 9.17387 31.5791 9.1345 31.4499L8.26695 28.6036L10.9686 26.8959C11.3282 26.6974 11.7499 26.6428 12.148 26.7434C12.1569 26.7456 12.1658 26.7476 12.1747 26.7492L17.6899 27.7648C19.1921 28.0335 20.7406 27.815 22.1094 27.141C22.1275 27.1319 22.1449 27.1219 22.1616 27.1102L31.701 20.5605C31.8867 20.433 31.9411 20.1826 31.8246 19.9896C31.0999 18.7819 29.5525 18.3588 28.3137 19.0295ZM25.8791 19.208C26.369 18.9627 26.9845 19.159 27.384 19.531L23.7841 21.4733L23.5867 21.5772C23.4736 21.262 23.3111 20.9667 23.1051 20.7027L25.8791 19.208ZM22.1702 19.106L22.1801 19.1005C22.8275 18.7262 23.6261 18.7287 24.271 19.1068L22.4621 20.0814C22.1222 19.8346 21.7363 19.6589 21.327 19.564L22.1702 19.106ZM2.4772 31.1482L1.10837 19.9245H4.72994L8.15189 31.1482H2.4772ZM21.7044 26.3907C20.5063 26.9735 19.1544 27.1615 17.8427 26.927L12.3413 25.9139C11.7327 25.7639 11.0897 25.8509 10.543 26.1578C10.5366 26.1614 10.5299 26.1653 10.5236 26.1695L8.00882 27.759L6.21606 21.8786C6.76891 21.71 7.27852 21.4236 7.71021 21.0396L8.61047 20.2381C10.3076 18.9627 12.5756 18.7447 14.4845 19.6733L14.8627 19.8563C15.5131 20.1699 16.2254 20.3329 16.9471 20.334H20.6164C21.7146 20.3354 22.6595 21.1114 22.8747 22.1886L20.2338 22.0691C19.2661 22.0256 18.2966 22.0702 17.337 22.2027C17.1041 22.2352 16.9413 22.45 16.9735 22.6832C17.0059 22.9161 17.2208 23.0789 17.454 23.0464C18.362 22.9211 19.2794 22.8787 20.1952 22.92L23.325 23.062C23.3313 23.062 23.3377 23.0622 23.3441 23.0622C23.5795 23.0622 23.77 22.8718 23.77 22.6364C23.77 22.5726 23.7677 22.5097 23.7639 22.4467L24.1847 22.2249L28.7185 19.7792C29.423 19.3977 30.2958 19.5333 30.8515 20.1105L21.7044 26.3907Z" fill="#1A6C99"/>
<path d="M3.75729 29.4614C3.75729 30.1845 4.3437 30.7706 5.06707 30.7706C5.79017 30.7703 6.37629 30.1839 6.37602 29.4606C6.37602 28.7375 5.78961 28.1513 5.06624 28.1516C4.34342 28.1524 3.75785 28.7386 3.75729 29.4614ZM5.06652 29.0036C5.31938 29.0036 5.52427 29.2085 5.52427 29.4614C5.52455 29.714 5.31938 29.9191 5.06679 29.9191C4.81393 29.9191 4.60904 29.7142 4.60904 29.4614C4.60904 29.2085 4.81366 29.0036 5.06624 29.0034L5.06652 29.0036Z" fill="#1A6C99"/>
<path d="M16.0435 16.3847C20.1988 16.3847 23.5673 13.0163 23.5673 8.86095C23.5673 4.70565 20.1988 1.33722 16.0435 1.33722C11.8882 1.33722 8.51981 4.70565 8.51981 8.86095C8.52452 13.0143 11.8902 16.38 16.0435 16.3847ZM16.0435 2.18896C19.7283 2.18896 22.7155 5.17616 22.7155 8.86095C22.7155 12.5457 19.7283 15.5329 16.0435 15.5329C12.3588 15.5329 9.37155 12.5457 9.37155 8.86095C9.37571 5.17783 12.3604 2.19312 16.0435 2.18896Z" fill="#1A6C99"/>
<path d="M15.1003 8.83405H15.0845L13.8221 8.82046H13.8174C13.6438 8.82046 13.4875 8.92582 13.4226 9.08663C13.3574 9.24772 13.3968 9.4321 13.5216 9.55271L16.6446 12.5679C16.814 12.7315 17.0835 12.7268 17.2468 12.5574C17.4101 12.3882 17.4054 12.1188 17.2363 11.9552L14.8835 9.68385L15.075 9.68607C16.191 9.69772 17.1573 8.91251 17.3741 7.81761L18.2447 7.82704H18.2491C18.4845 7.82815 18.6761 7.6385 18.6772 7.40339C18.6786 7.16799 18.489 6.97641 18.2538 6.9753L17.3838 6.96587C17.3175 6.5827 17.1551 6.22254 16.9113 5.91949L18.2649 5.93363H18.2696C18.5048 5.93502 18.6963 5.74537 18.6977 5.50998C18.6988 5.27486 18.5092 5.08327 18.2741 5.08189L15.1247 5.04806L13.8623 5.03475C13.6272 5.03226 13.4345 5.2208 13.432 5.45591C13.4295 5.69131 13.618 5.884 13.8532 5.8865L15.1155 5.89981C15.7618 5.90729 16.3272 6.33594 16.509 6.95617L13.8421 6.92789H13.8374C13.6022 6.9265 13.4104 7.11615 13.4093 7.35154C13.4079 7.58666 13.5978 7.77824 13.8329 7.77963L16.4988 7.80791C16.3058 8.41788 15.7402 8.83294 15.1003 8.83405Z" fill="#1A6C99"/>
<path d="M26.5023 4.80298C26.267 4.80298 26.0765 4.99373 26.0765 5.22885V5.93864C26.0765 6.17403 26.267 6.36451 26.5023 6.36451C26.7375 6.36451 26.9282 6.17403 26.9282 5.93864V5.22885C26.9282 4.99373 26.7375 4.80298 26.5023 4.80298Z" fill="#1A6C99"/>
<path d="M26.5023 6.93234C26.267 6.93234 26.0765 7.1231 26.0765 7.35821V8.068C26.0765 8.30339 26.267 8.49387 26.5023 8.49387C26.7375 8.49387 26.9282 8.30339 26.9282 8.068V7.35821C26.9282 7.1231 26.7375 6.93234 26.5023 6.93234Z" fill="#1A6C99"/>
<path d="M25.0828 6.22256C24.8474 6.22256 24.6569 6.41332 24.6569 6.64844C24.6569 6.88383 24.8474 7.07431 25.0828 7.07431H25.7925C26.0277 7.07431 26.2184 6.88383 26.2184 6.64844C26.2184 6.41332 26.0277 6.22256 25.7925 6.22256H25.0828Z" fill="#1A6C99"/>
<path d="M27.9219 7.07431C28.157 7.07431 28.3478 6.88383 28.3478 6.64844C28.3478 6.41332 28.157 6.22256 27.9219 6.22256H27.2121C26.9767 6.22256 26.7863 6.41332 26.7863 6.64844C26.7863 6.88383 26.9767 7.07431 27.2121 7.07431H27.9219Z" fill="#1A6C99"/>
<path d="M7.82498 0C7.58986 0 7.39911 0.190755 7.39911 0.425872V1.13566C7.39911 1.37077 7.58986 1.56153 7.82498 1.56153C8.06037 1.56153 8.25085 1.37077 8.25085 1.13566V0.425872C8.25085 0.190755 8.06037 0 7.82498 0Z" fill="#1A6C99"/>
<path d="M7.82498 2.12936C7.58986 2.12936 7.39911 2.32012 7.39911 2.55524V3.26502C7.39911 3.50014 7.58986 3.69089 7.82498 3.69089C8.06037 3.69089 8.25085 3.50014 8.25085 3.26502V2.55524C8.25085 2.32012 8.06037 2.12936 7.82498 2.12936Z" fill="#1A6C99"/>
<path d="M6.40542 1.41959C6.17031 1.41959 5.97955 1.61034 5.97955 1.84546C5.97955 2.08057 6.17031 2.27133 6.40542 2.27133H7.11521C7.3506 2.27133 7.54108 2.08057 7.54108 1.84546C7.54108 1.61034 7.3506 1.41959 7.11521 1.41959H6.40542Z" fill="#1A6C99"/>
<path d="M9.24454 1.41959H8.53476C8.29964 1.41959 8.10889 1.61034 8.10889 1.84546C8.10889 2.08057 8.29964 2.27133 8.53476 2.27133H9.24454C9.47994 2.27133 9.67042 2.08057 9.67042 1.84546C9.67042 1.61034 9.47994 1.41959 9.24454 1.41959Z" fill="#1A6C99"/>
</g>
<defs>
<clipPath id="clip0_28_299">
<rect width="32" height="32" fill="white"/>
</clipPath>
</defs>
</svg>
