<svg width="49" height="51" viewBox="0 0 49 51" fill="none" xmlns="http://www.w3.org/2000/svg">
<path d="M37.2984 10.4568V13.9263C37.2984 17.9157 34.9489 21.5307 31.3039 23.1513C30.3753 23.5642 29.776 24.4853 29.776 25.5017C29.776 26.518 30.3744 27.4391 31.3039 27.852C34.9498 29.4718 37.2984 33.0876 37.2984 37.077V40.5465H12.2236V37.077C12.2236 33.0876 14.5731 29.4727 18.2182 27.852C19.1468 27.4391 19.7461 26.518 19.7461 25.5017C19.7461 24.4853 19.1476 23.5642 18.2182 23.1513C14.5723 21.5315 12.2236 17.9157 12.2236 13.9263V10.4568H37.2984Z" fill="#DEEBEB"/>
<path d="M13.0595 37.912C12.5972 37.912 12.2236 37.5375 12.2236 37.0762C12.2236 33.0909 14.5765 29.4701 18.219 27.8511C19.1468 27.4391 19.7461 26.5163 19.7461 25.5008C19.7461 24.4853 19.1468 23.5625 18.219 23.1504C14.5773 21.5306 12.2236 17.9098 12.2236 13.9254C12.2236 13.464 12.5972 13.0896 13.0595 13.0896C13.5217 13.0896 13.8953 13.464 13.8953 13.9254C13.8953 17.2503 15.8586 20.2719 18.8969 21.6226C20.4281 22.3021 21.4177 23.8233 21.4177 25.5C21.4177 27.1766 20.4281 28.6978 18.8977 29.3782C15.8586 30.7289 13.8953 33.7504 13.8953 37.0753C13.8953 37.5367 13.5217 37.912 13.0595 37.912Z" fill="#F5FFFF"/>
<path d="M36.4623 37.912C36.0001 37.912 35.6264 37.5375 35.6264 37.0762C35.6264 33.7504 33.6622 30.7297 30.624 29.3799C29.0936 28.6987 28.104 27.1758 28.104 25.5008C28.104 23.8258 29.0936 22.3029 30.624 21.6226C33.6631 20.2719 35.6264 17.2512 35.6264 13.9254C35.6264 13.464 36.0001 13.0896 36.4623 13.0896C36.9245 13.0896 37.2981 13.464 37.2981 13.9254C37.2981 17.9106 34.9452 21.5323 31.3027 23.1504C30.3749 23.5625 29.7757 24.4853 29.7757 25.5008C29.7757 26.5163 30.3758 27.4391 31.3027 27.852C34.9444 29.4701 37.2981 33.0909 37.2981 37.0762C37.2981 37.5375 36.9245 37.912 36.4623 37.912Z" fill="#F5FFFF"/>
<path d="M13.895 40.5456V37.076C13.895 33.7503 15.8592 30.7296 18.8974 29.3798C20.4278 28.6994 21.4175 27.1765 21.4175 25.5015C21.4175 23.8265 20.4278 22.3037 18.8966 21.6233C15.8584 20.2726 13.895 17.2519 13.895 13.9262V10.4558H35.6265V13.9262C35.6265 17.2519 33.6623 20.2726 30.6241 21.6233C29.0937 22.3028 28.1041 23.8257 28.1041 25.5015C28.1041 27.1774 29.0937 28.6994 30.6241 29.3798C33.6632 30.7305 35.6265 33.7511 35.6265 37.076V40.5456H13.895Z" fill="#A4B7B6"/>
<path d="M13.895 38.874H35.6265V40.5457H13.895V38.874Z" fill="#7B8989"/>
<path d="M15.5669 40.5463V40.3741C15.5669 38.0037 17.598 36.2618 19.9658 36.3688C20.1715 36.378 20.3771 36.3772 20.5819 36.3663C21.8949 36.297 22.913 35.8297 23.8583 35.2647L26.4251 33.7076C27.1623 33.3423 27.9714 33.074 28.9401 33.023L28.9894 33.0205C31.7268 32.8976 33.9551 35.2313 33.9551 37.9711V40.5455L15.5669 40.5463Z" fill="#F3C68B"/>
<path d="M13.895 10.4558H35.6265V12.1275H13.895V10.4558Z" fill="#7B8989"/>
<path d="M13.8952 7.11328H35.6267C37.0108 7.11328 38.1341 8.23663 38.1341 9.62076C38.1341 10.0821 37.7597 10.4566 37.2983 10.4566H12.2235C11.7621 10.4566 11.3877 10.0821 11.3877 9.62076C11.3877 8.23663 12.511 7.11328 13.8952 7.11328Z" fill="#F1A141"/>
<path d="M12.2235 40.5464H37.2983C37.7597 40.5464 38.1341 40.9208 38.1341 41.3822C38.1341 42.7663 37.0108 43.8897 35.6267 43.8897H13.8952C12.511 43.8897 11.3877 42.7663 11.3877 41.3822C11.3877 40.9208 11.7621 40.5464 12.2235 40.5464Z" fill="#F1A141"/>
<path d="M32.2718 0.425885H34.7617C41.2343 0.425885 46.4808 5.6732 46.4808 12.145V12.9633H48.0471C48.8069 12.9633 49.2599 13.81 48.8387 14.4419L44.81 20.4857L40.7805 14.4419C40.3592 13.81 40.8122 12.9624 41.572 12.9624H43.1375V12.1266C43.1375 7.51035 39.3955 3.76836 34.7792 3.76836H32.2718C31.3482 3.76836 30.6001 3.02029 30.6001 2.0967C30.6001 1.17311 31.3482 0.425885 32.2718 0.425885Z" fill="#0F9452"/>
<path d="M26.4327 27.1731C26.4327 26.2499 25.6842 25.5015 24.761 25.5015C23.8378 25.5015 23.0894 26.2499 23.0894 27.1731C23.0894 28.0963 23.8378 28.8448 24.761 28.8448C25.6842 28.8448 26.4327 28.0963 26.4327 27.1731Z" fill="#EAB16C"/>
<path d="M24.761 35.5315C25.6842 35.5315 26.4327 34.7831 26.4327 33.8599C26.4327 32.9367 25.6842 32.1882 24.761 32.1882C23.8378 32.1882 23.0894 32.9367 23.0894 33.8599C23.0894 34.7831 23.8378 35.5315 24.761 35.5315Z" fill="#EAB16C"/>
<path d="M24.7608 22.1583C18.0742 22.1583 15.5659 16.3066 15.5659 16.3066H33.9558C33.9558 16.3066 31.4475 22.1583 24.7608 22.1583Z" fill="#EAB16C"/>
<path d="M33.9549 7.11255H15.5667C14.6434 7.11255 13.895 7.86097 13.895 8.7842C13.895 9.70743 14.6434 10.4559 15.5667 10.4559H33.9549C34.8781 10.4559 35.6265 9.70743 35.6265 8.7842C35.6265 7.86097 34.8781 7.11255 33.9549 7.11255Z" fill="#FFBE51"/>
<path d="M33.9549 40.5457H15.5667C14.6434 40.5457 13.895 41.2941 13.895 42.2173C13.895 43.1405 14.6434 43.889 15.5667 43.889H33.9549C34.8781 43.889 35.6265 43.1405 35.6265 42.2173C35.6265 41.2941 34.8781 40.5457 33.9549 40.5457Z" fill="#FFBE51"/>
<path d="M28.9894 33.0216L28.9401 33.0241C27.9714 33.0751 27.1623 33.3442 26.4251 33.7086L23.8582 35.2658C22.9129 35.8308 21.8949 36.298 20.5818 36.3674C20.377 36.3782 20.1723 36.3791 19.9658 36.3699C19.6031 36.3532 19.2503 36.3849 18.9102 36.451V36.5855C18.9102 38.3115 20.3093 39.7107 22.0353 39.7107H33.955V37.973C33.955 35.2332 31.7259 32.8995 28.9894 33.0216Z" fill="#F5D1A2"/>
<path d="M24.7607 19.6506C28.425 19.6506 30.8271 17.8946 32.2572 16.3057H17.2642C18.6934 17.8946 21.0964 19.6506 24.7607 19.6506Z" fill="#E59945"/>
<g opacity="0.5">
<path d="M27.9606 23.1513C31.6064 21.5315 33.9551 17.9157 33.9551 13.9263V10.4568H30.6118V13.9263C30.6118 17.9157 28.2623 21.5307 24.6172 23.1513C23.6886 23.5642 23.0894 24.4853 23.0894 25.5017C23.0894 26.518 23.6878 27.4391 24.6172 27.852C28.2631 29.4718 30.6118 33.0876 30.6118 37.077V40.5465H33.9551V37.077C33.9551 33.0876 31.6056 29.4727 27.9606 27.852C27.0319 27.4391 26.4327 26.518 26.4327 25.5017C26.4327 24.4853 27.0311 23.5642 27.9606 23.1513Z" fill="#F5FFFF"/>
</g>
<path d="M48.047 12.9632H46.4807V12.1449C46.4807 5.67227 41.2333 0.425781 34.7615 0.425781H32.361C31.5286 0.425781 30.7563 0.994979 30.6225 1.8166C30.452 2.86389 31.2561 3.76909 32.2716 3.76909H34.7791C39.3954 3.76909 43.1374 7.51108 43.1374 12.1274V12.9632H41.5718C40.8121 12.9632 40.3591 13.8099 40.7803 14.4426L42.8874 17.6037C43.4006 18.3743 44.5349 18.3676 45.0397 17.5912L48.0462 12.964L48.047 12.9632Z" fill="#1CB15F"/>
<path d="M44.7948 13.2983C43.9105 13.2983 43.1733 12.6046 43.1273 11.7119C42.8999 7.25783 39.2248 3.76909 34.7615 3.76909C33.8387 3.76909 33.0898 3.02019 33.0898 2.09743C33.0898 1.17468 33.8387 0.425781 34.7615 0.425781C41.006 0.425781 46.1471 5.30784 46.4656 11.5414C46.5132 12.4634 45.8036 13.249 44.8817 13.2967C44.8524 13.2975 44.824 13.2983 44.7948 13.2983Z" fill="#27D674"/>
<path d="M17.2385 50.5764H14.7485C8.27588 50.5764 3.0294 45.3291 3.0294 38.8573V38.039H1.46306C0.703293 38.039 0.250275 37.1923 0.671532 36.5605L4.70022 30.5166L8.72974 36.5605C9.15099 37.1923 8.69797 38.0399 7.93821 38.0399H6.3727V38.8757C6.3727 43.492 10.1147 47.234 14.731 47.234H17.2385C18.162 47.234 18.9101 47.982 18.9101 48.9056C18.9101 49.8292 18.162 50.5764 17.2385 50.5764Z" fill="#0F9452"/>
<path d="M1.46289 38.0389H3.02923V38.8571C3.02923 45.3298 8.27655 50.5763 14.7484 50.5763H17.1488C17.9813 50.5763 18.7536 50.0071 18.8874 49.1855C19.0579 48.1382 18.2538 47.233 17.2383 47.233H14.7308C10.1145 47.233 6.37254 43.491 6.37254 38.8747V38.0389H7.93804C8.6978 38.0389 9.15082 37.1922 8.72957 36.5595L6.21874 32.7932C5.89611 32.3093 5.18232 32.3135 4.86554 32.8016L1.46289 38.0389Z" fill="#1CB15F"/>
<path d="M4.71605 37.7039C5.60036 37.7039 6.33755 38.3976 6.38352 39.2903C6.61087 43.7444 10.286 47.2331 14.7493 47.2331C15.6721 47.2331 16.421 47.982 16.421 48.9048C16.421 49.8275 15.6721 50.5764 14.7493 50.5764C8.50485 50.5764 3.36368 45.6944 3.04523 39.4608C2.99759 38.5388 3.70721 37.7532 4.62913 37.7055C4.65838 37.7047 4.6868 37.7039 4.71605 37.7039Z" fill="#27D674"/>
</svg>
