<svg width="255" height="238" viewBox="0 0 255 238" fill="none" xmlns="http://www.w3.org/2000/svg">
<path d="M246.8 99C246.8 135.8 244.667 163 240.4 180.6C236.133 198.2 227.333 210.733 214 218.2C200.133 225.667 178.533 229.4 149.2 229.4L149.2 189.4C166.267 189.4 177.467 185.667 182.8 178.2C188.133 170.733 190.8 156.333 190.8 135L190.8 122.2L155.6 122.2L155.6 32.6L246.8 32.6L246.8 99ZM111.6 99C111.6 135.8 109.467 163 105.2 180.6C100.933 198.2 91.8666 210.733 78 218.2C64.1333 225.667 42.5333 229.4 13.2 229.4L13.1999 189.4C30.2666 189.4 41.7333 185.667 47.6 178.2C52.9333 170.733 55.5999 156.333 55.5999 135L55.5999 122.2L19.6 122.2L19.5999 32.6L111.6 32.6L111.6 99Z" fill="white" fill-opacity="0.4"/>
</svg>
