<svg width="255" height="238" viewBox="0 0 255 238" fill="none" xmlns="http://www.w3.org/2000/svg">
<path d="M8.2 139C8.2 102.2 10.3333 75 14.6 57.4C18.8667 39.8 27.6667 27.2666 41 19.8C54.8667 12.3333 76.4667 8.59998 105.8 8.59998V48.6C88.7333 48.6 77.5333 52.3333 72.2 59.8C66.8667 67.2667 64.2 81.6666 64.2 103V115.8H99.4V205.4H8.2V139ZM143.4 139C143.4 102.2 145.533 75 149.8 57.4C154.067 39.8 163.133 27.2666 177 19.8C190.867 12.3333 212.467 8.59998 241.8 8.59998V48.6C224.733 48.6 213.267 52.3333 207.4 59.8C202.067 67.2667 199.4 81.6666 199.4 103V115.8H235.4V205.4H143.4V139Z" fill="white" fill-opacity="0.4"/>
</svg>
