<svg width="84" height="84" viewBox="0 0 84 84" fill="none" xmlns="http://www.w3.org/2000/svg">
<path d="M21.285 63.0952C9.73954 51.5497 9.73954 32.8307 21.285 21.2852C32.8305 9.7397 51.5495 9.73969 63.095 21.2852C74.6405 32.8307 74.6405 51.5497 63.095 63.0952C51.5495 74.6407 32.8305 74.6407 21.285 63.0952Z" fill="#FF6C6C"/>
<path d="M42.1836 12.6216V71.7586C25.8794 71.7586 12.615 58.4942 12.615 42.19C12.615 25.8859 25.8794 12.6216 42.1836 12.6216Z" fill="#E63950"/>
<path d="M38.9575 61.5658C28.2571 59.7752 21.0343 49.6491 22.8249 38.9486C24.6156 28.2481 34.7416 21.0252 45.442 22.8159C56.1425 24.6065 63.3653 34.7326 61.5746 45.4331C59.784 56.1336 49.658 63.3564 38.9575 61.5658Z" fill="#F0F7FF"/>
<path d="M42.1836 22.54V61.84C31.3486 61.84 22.5335 53.025 22.5335 42.19C22.5335 31.3551 31.3486 22.54 42.1836 22.54Z" fill="#DFE7F4"/>
<path d="M33.5091 46.6188C31.069 41.8301 32.973 35.9701 37.7617 33.53C42.5504 31.09 48.4105 32.994 50.8505 37.7827C53.2905 42.5714 51.3865 48.4314 46.5979 50.8714C41.8092 53.3115 35.9491 51.4075 33.5091 46.6188Z" fill="#FF6C6C"/>
<path d="M42.1836 32.4587V51.9216C36.8176 51.9216 32.452 47.5562 32.452 42.1902C32.452 36.8242 36.8176 32.4587 42.1836 32.4587Z" fill="#E63950"/>
<path d="M51.9578 19.7286L60.6461 11.0403C61.0784 10.6078 61.7012 10.425 62.2986 10.5551C62.896 10.6851 63.3864 11.1102 63.6 11.6832L65.3783 16.4544L64.8703 19.5032L67.919 18.9952L72.6901 20.7734C73.2631 20.9869 73.6882 21.4773 73.8183 22.0747C73.9482 22.6722 73.7656 23.2949 73.3331 23.7273L64.6448 32.4156C64.3048 32.7556 63.8466 32.9419 63.3744 32.9419C63.2679 32.9419 63.1608 32.9324 63.0539 32.9131L54.4648 31.356C53.7279 31.2224 53.1511 30.6455 53.0174 29.9087L51.4604 21.3195C51.3553 20.7398 51.5411 20.1453 51.9578 19.7286Z" fill="#29376D"/>
<path d="M40.9132 40.9197L65.3787 16.4543L66.0684 18.3053L67.9194 18.9951L43.454 43.4606C43.1031 43.8114 42.6433 43.9868 42.1836 43.9868C41.7238 43.9868 41.264 43.8113 40.9133 43.4606C40.2115 42.759 40.2115 41.6213 40.9132 40.9197Z" fill="#47568C"/>
</svg>
