<svg width="154" height="154" viewBox="0 0 154 154" fill="none" xmlns="http://www.w3.org/2000/svg">
<circle cx="77" cy="77" r="71" fill="#EF5B23" stroke="white" stroke-width="12"/>
<path d="M43.9998 88.085C43.8248 88.0849 43.6528 88.039 43.5011 87.9516C43.3494 87.8643 43.2233 87.7387 43.1354 87.5874C43.0474 87.436 43.0008 87.2643 43 87.0892C42.9993 86.9142 43.0445 86.742 43.1311 86.59L43.8284 85.3664C49.6756 75.1018 49.6756 58.3996 43.8284 48.135L43.1307 46.91C43.0292 46.7313 42.9852 46.5258 43.0045 46.3212C43.0239 46.1167 43.1058 45.923 43.2391 45.7667C43.3723 45.6103 43.5505 45.4987 43.7494 45.4471C43.9483 45.3955 44.1582 45.4064 44.3507 45.4783L50.3328 47.7217C52.6423 48.5803 55.1127 48.9197 57.5682 48.7158C68.275 47.8909 79.0246 47.7731 89.7469 48.3633C89.878 48.3704 90.0063 48.4033 90.1247 48.4601C90.243 48.5168 90.349 48.5964 90.4366 48.6942C90.5241 48.7919 90.5916 48.906 90.635 49.0299C90.6785 49.1537 90.6971 49.2849 90.6898 49.416C90.6841 49.5475 90.6522 49.6766 90.5959 49.7957C90.5396 49.9147 90.46 50.0213 90.362 50.1092C90.2639 50.1971 90.1493 50.2645 90.0248 50.3074C89.9003 50.3504 89.7685 50.3681 89.6371 50.3594C79.0026 49.7764 68.3412 49.8935 57.7221 50.71C54.9758 50.9375 52.2131 50.5567 49.6307 49.5947L46.1907 48.3047C51.5169 58.7832 51.5169 74.7147 46.1907 85.1953L49.6307 83.9053C52.2134 82.9442 54.9761 82.5634 57.7225 82.79C60.2137 82.9824 62.7107 83.1367 65.1438 83.248C65.275 83.254 65.4038 83.2858 65.5227 83.3415C65.6416 83.3973 65.7484 83.476 65.8369 83.573C65.9254 83.67 65.9939 83.7836 66.0386 83.9071C66.0832 84.0306 66.1031 84.1618 66.097 84.293C66.0934 84.4249 66.0632 84.5548 66.0082 84.6749C65.9532 84.7949 65.8746 84.9027 65.7771 84.9916C65.6795 85.0806 65.565 85.149 65.4405 85.1927C65.3159 85.2364 65.1838 85.2546 65.052 85.2461C62.5984 85.1328 60.0804 84.9775 57.5686 84.7842C55.1129 84.5783 52.642 84.9177 50.3328 85.7783L44.3509 88.0215C44.2386 88.0636 44.1197 88.0851 43.9998 88.085Z" fill="white"/>
<path d="M108.658 88.0852C108.538 88.0853 108.419 88.0638 108.307 88.0217L102.324 85.7785C100.015 84.9183 97.5451 84.5788 95.0899 84.7844C92.5948 84.9777 90.0509 85.1344 87.5284 85.2502C87.2634 85.2624 87.0045 85.1688 86.8085 84.9901C86.6126 84.8114 86.4957 84.5621 86.4835 84.2971C86.4713 84.0322 86.5649 83.7733 86.7436 83.5773C86.9224 83.3813 87.1716 83.2644 87.4366 83.2522C89.9376 83.1379 92.461 82.9816 94.9356 82.7902C97.682 82.5628 100.445 82.9436 103.027 83.9055L106.468 85.1955C103.608 79.5647 102.177 72.1232 102.521 64.5355C102.537 64.2722 102.655 64.0256 102.85 63.8476C103.045 63.6696 103.301 63.5742 103.565 63.5814C103.696 63.5873 103.825 63.619 103.943 63.6747C104.062 63.7303 104.169 63.8089 104.258 63.9058C104.346 64.0027 104.415 64.1162 104.46 64.2396C104.505 64.3631 104.525 64.4942 104.519 64.6253C104.167 72.3802 105.738 79.9402 108.83 85.3664L109.527 86.59C109.614 86.7422 109.659 86.9144 109.658 87.0894C109.657 87.2644 109.61 87.4361 109.522 87.5874C109.435 87.7387 109.308 87.8643 109.157 87.9517C109.005 88.039 108.833 88.0851 108.658 88.0852Z" fill="white"/>
<path d="M76.3292 93.4444C70.2506 93.4444 64.7999 88.3344 62.9581 80.9659C59.0514 78.4083 58.4469 75.1749 58.3712 73.8759C58.2816 73.1795 58.3544 72.4719 58.5841 71.8084C58.8137 71.1449 59.1939 70.5436 59.6949 70.0517C60.3275 69.6015 61.113 69.4208 61.8788 69.5496C62.6445 69.6783 63.3278 70.1058 63.7784 70.7382C63.8621 70.8394 63.9251 70.9561 63.9638 71.0816C64.0024 71.2071 64.016 71.339 64.0036 71.4698C63.9913 71.6006 63.9533 71.7276 63.8919 71.8437C63.8305 71.9598 63.7468 72.0627 63.6456 72.1464C63.5444 72.2302 63.4277 72.2931 63.3022 72.3318C63.1767 72.3704 63.0447 72.384 62.914 72.3717C62.7832 72.3593 62.6562 72.3214 62.5401 72.2599C62.424 72.1985 62.3211 72.1148 62.2374 72.0136C62.1212 71.8759 61.4864 71.1874 60.9313 71.6236C60.6933 71.9205 60.5202 72.2639 60.4232 72.6318C60.3261 72.9997 60.3072 73.3838 60.3678 73.7594C60.4273 74.7818 60.9361 77.3873 64.3585 79.485C64.4719 79.5545 64.5702 79.646 64.6479 79.7539C64.7255 79.8619 64.7808 79.9843 64.8106 80.1139C66.3414 86.7848 71.0782 91.4439 76.3292 91.4439C81.5802 91.4439 86.3165 86.7848 87.8478 80.1139C87.8774 79.9842 87.9326 79.8618 88.0103 79.7538C88.0879 79.6458 88.1864 79.5544 88.2999 79.485C91.7218 77.3883 92.2306 74.7828 92.2911 73.7603C92.3516 73.3846 92.3327 73.0003 92.2357 72.6323C92.1386 72.2643 91.9655 71.9207 91.7276 71.6236C91.1261 71.15 90.4483 71.7867 90.3165 71.9176C90.1324 72.1057 89.8815 72.2136 89.6183 72.2178C89.3551 72.2221 89.1009 72.1223 88.9108 71.9402C88.7207 71.7581 88.6101 71.5084 88.6031 71.2452C88.596 70.9821 88.6931 70.7268 88.8731 70.5348C89.3684 69.9533 90.0651 69.5803 90.8237 69.4907C91.5823 69.401 92.3468 69.6013 92.964 70.0514C93.4651 70.5436 93.8454 71.1452 94.075 71.809C94.3046 72.4729 94.3772 73.1809 94.2872 73.8775C94.211 75.1754 93.6065 78.4075 89.7003 80.9654C87.8585 88.3351 82.4083 93.4444 76.3292 93.4444Z" fill="white"/>
<path d="M88.1531 74.879C88.1143 74.8791 88.0755 74.8768 88.0369 74.8722C87.8542 74.8508 87.681 74.7794 87.5363 74.6658C87.3916 74.5523 87.281 74.401 87.2169 74.2286C86.5428 72.3341 85.3217 70.6824 83.7083 69.4823C82.0949 68.2823 80.1617 67.588 78.1534 67.4874C73.7234 69.9952 68.6866 68.3605 66.8722 67.6183C65.6725 69.2369 64.866 71.1125 64.5167 73.0968C64.4825 73.3125 64.3786 73.5112 64.2209 73.6623C64.0631 73.8135 63.8602 73.9088 63.6432 73.9337C63.4262 73.9587 63.2069 73.9119 63.019 73.8004C62.8311 73.689 62.6849 73.5191 62.6026 73.3168C61.8361 71.1959 61.4427 68.9583 61.4398 66.7032C61.3793 64.9669 61.4213 63.3351 61.4584 61.8956C61.5284 59.1856 61.5884 56.8409 60.8617 55.962L60.8251 55.919C60.6598 55.7159 60.5807 55.4562 60.6048 55.1955C60.6289 54.9349 60.7543 54.694 60.954 54.5248C61.1537 54.3555 61.4118 54.2713 61.6729 54.2902C61.9341 54.3092 62.1773 54.4297 62.3505 54.6261C62.3612 54.6378 62.3715 54.6505 62.3817 54.6622C63.0482 55.4125 63.8788 55.999 64.809 56.3761C65.7391 56.7531 66.7436 56.9105 67.7445 56.836C68.1445 56.7804 68.7411 56.6681 69.474 56.5323C73.0546 55.8644 79.7191 54.6251 83.2689 56.0423C86.2758 57.2454 89.848 60.1966 91.0512 64.0794C92.0712 67.3724 91.3764 70.8567 88.9838 74.4349C88.8925 74.5714 88.7689 74.6834 88.624 74.7608C88.4791 74.8383 88.3174 74.8789 88.1531 74.879ZM77.887 65.4806C80.005 65.5539 82.0694 66.1659 83.8853 67.2585C85.7012 68.3512 87.2086 69.8886 88.2654 71.7257C88.8735 70.6672 89.2641 69.498 89.4143 68.2866C89.5646 67.0751 89.4715 65.8459 89.1404 64.671C87.9891 60.9532 84.4412 58.6651 82.5271 57.8995C79.5144 56.6935 72.9808 57.9132 69.8406 58.4981C69.0691 58.6417 68.4412 58.7581 68.0206 58.8165C66.4457 59.0271 64.8446 58.7323 63.4479 57.9747C63.5313 59.1085 63.4972 60.4347 63.4586 61.9474C63.422 63.3585 63.381 64.9581 63.4396 66.6329C63.4713 67.5519 63.5359 68.395 63.6334 69.1622C64.1666 67.8643 64.9517 66.6849 65.9434 65.6922C66.0927 65.5512 66.2816 65.4595 66.4847 65.4292C66.6878 65.399 66.8952 65.4318 67.0791 65.5232C67.1357 65.5525 72.876 68.3523 77.3745 65.6258C77.5272 65.5327 77.7021 65.4825 77.8809 65.4803L77.887 65.4806Z" fill="white"/>
<path d="M81.7941 79.0479H79.7441C79.4789 79.0479 79.2246 78.9425 79.037 78.755C78.8495 78.5674 78.7441 78.3131 78.7441 78.0479C78.7441 77.7826 78.8495 77.5283 79.037 77.3407C79.2246 77.1532 79.4789 77.0479 79.7441 77.0479H81.7941C82.0594 77.0479 82.3137 77.1532 82.5012 77.3407C82.6888 77.5283 82.7941 77.7826 82.7941 78.0479C82.7941 78.3131 82.6888 78.5674 82.5012 78.755C82.3137 78.9425 82.0594 79.0479 81.7941 79.0479Z" fill="white"/>
<path d="M72.1753 79.0479H70.126C69.8608 79.0479 69.6064 78.9425 69.4189 78.755C69.2313 78.5674 69.126 78.3131 69.126 78.0479C69.126 77.7826 69.2313 77.5283 69.4189 77.3407C69.6064 77.1532 69.8608 77.0479 70.126 77.0479H72.1753C72.4405 77.0479 72.6948 77.1532 72.8824 77.3407C73.0699 77.5283 73.1753 77.7826 73.1753 78.0479C73.1753 78.3131 73.0699 78.5674 72.8824 78.755C72.6948 78.9425 72.4405 79.0479 72.1753 79.0479Z" fill="white"/>
<path d="M76.3293 87.382C75.102 87.3816 73.9065 86.9918 72.9148 86.2688C72.8045 86.1933 72.7105 86.0964 72.6383 85.9839C72.5662 85.8714 72.5173 85.7456 72.4945 85.6138C72.4718 85.4821 72.4757 85.3472 72.506 85.217C72.5364 85.0868 72.5925 84.964 72.6711 84.8559C72.7497 84.7478 72.8491 84.6565 72.9636 84.5875C73.078 84.5185 73.2052 84.4731 73.3375 84.4541C73.4698 84.435 73.6046 84.4427 73.7338 84.4766C73.8631 84.5105 73.9843 84.57 74.0902 84.6516C74.7404 85.126 75.5245 85.3815 76.3294 85.3813C77.1343 85.3811 77.9183 85.1253 78.5683 84.6506C78.7831 84.4947 79.051 84.4304 79.3131 84.472C79.5753 84.5136 79.8101 84.6576 79.9661 84.8724C80.122 85.0872 80.1863 85.3551 80.1447 85.6172C80.1031 85.8794 79.9591 86.1143 79.7443 86.2702C78.7521 86.9924 77.5565 87.3817 76.3293 87.382Z" fill="white"/>
<path d="M95.1709 112.585H57.4878C57.2226 112.585 56.9682 112.48 56.7807 112.292C56.5932 112.105 56.4878 111.85 56.4878 111.585V103.665C56.4959 100.145 57.6489 96.7238 59.7728 93.9171C61.8967 91.1103 64.8761 89.0708 68.2612 88.1065C68.5166 88.0347 68.79 88.0672 69.0214 88.1969C69.2528 88.3267 69.4232 88.5431 69.4951 88.7984C69.567 89.0538 69.5344 89.3273 69.4047 89.5587C69.2749 89.7901 69.0586 89.9605 68.8032 90.0323C65.8371 90.8772 63.2265 92.6643 61.3656 95.1236C59.5047 97.583 58.4946 100.581 58.4878 103.665V110.585H94.1709V103.665C94.1639 100.581 93.1536 97.5827 91.2925 95.1232C89.4315 92.6637 86.8207 90.8764 83.8545 90.0313C83.728 89.9958 83.6098 89.9357 83.5066 89.8545C83.4034 89.7733 83.3172 89.6726 83.2529 89.5581C83.1886 89.4435 83.1475 89.3175 83.1319 89.187C83.1164 89.0566 83.1266 88.9244 83.1621 88.798C83.1977 88.6715 83.2577 88.5533 83.339 88.4501C83.4202 88.3469 83.5209 88.2607 83.6354 88.1964C83.75 88.1321 83.876 88.091 84.0064 88.0754C84.1368 88.0598 84.269 88.0701 84.3955 88.1056C87.7811 89.0698 90.761 91.1094 92.8853 93.9164C95.0096 96.7234 96.1628 100.145 96.1709 103.666V111.586C96.1708 111.851 96.0653 112.105 95.8778 112.292C95.6903 112.48 95.436 112.585 95.1709 112.585Z" fill="white"/>
<path d="M85.8926 112.585C85.7612 112.585 85.6312 112.559 85.5098 112.509C85.3884 112.459 85.2782 112.385 85.1853 112.292C85.0924 112.199 85.0188 112.089 84.9685 111.968C84.9183 111.846 84.8925 111.716 84.8926 111.585V105.477C84.8926 105.211 84.9979 104.957 85.1855 104.769C85.373 104.582 85.6274 104.477 85.8926 104.477C86.1578 104.477 86.4121 104.582 86.5997 104.769C86.7872 104.957 86.8926 105.211 86.8926 105.477V111.585C86.8926 111.85 86.7872 112.105 86.5997 112.292C86.4121 112.48 86.1578 112.585 85.8926 112.585Z" fill="white"/>
<path d="M66.7656 112.585C66.5004 112.585 66.2461 112.48 66.0585 112.292C65.871 112.105 65.7656 111.85 65.7656 111.585V105.477C65.7656 105.211 65.871 104.957 66.0585 104.769C66.2461 104.582 66.5004 104.477 66.7656 104.477C67.0308 104.477 67.2852 104.582 67.4727 104.769C67.6603 104.957 67.7656 105.211 67.7656 105.477V111.585C67.7656 111.85 67.6603 112.105 67.4727 112.292C67.2852 112.48 67.0308 112.585 66.7656 112.585Z" fill="white"/>
<path d="M99.8428 58.6875H95.1709C94.9762 58.6874 94.7857 58.6305 94.6228 58.5237C94.46 58.4169 94.3319 58.2649 94.2542 58.0864C94.1765 57.9078 94.1527 57.7104 94.1856 57.5185C94.2185 57.3265 94.3068 57.1484 94.4395 57.0059L97.5439 53.6748H95.1709C94.9057 53.6748 94.6513 53.5694 94.4638 53.3819C94.2763 53.1944 94.1709 52.94 94.1709 52.6748C94.1709 52.4096 94.2763 52.1552 94.4638 51.9677C94.6513 51.7802 94.9057 51.6748 95.1709 51.6748H99.8428C100.038 51.6749 100.228 51.7318 100.391 51.8386C100.554 51.9454 100.682 52.0974 100.759 52.276C100.837 52.4545 100.861 52.6519 100.828 52.8438C100.795 53.0358 100.707 53.2139 100.574 53.3564L97.47 56.6875H99.8431C100.108 56.6875 100.363 56.7929 100.55 56.9804C100.738 57.1679 100.843 57.4223 100.843 57.6875C100.843 57.9527 100.738 58.2071 100.55 58.3946C100.363 58.5821 100.108 58.6875 99.8428 58.6875Z" fill="white"/>
<path d="M110 53.17H104.636C104.441 53.17 104.251 53.1131 104.088 53.0063C103.925 52.8995 103.797 52.7475 103.719 52.5689C103.641 52.3903 103.618 52.1929 103.65 52.001C103.683 51.8091 103.772 51.6309 103.904 51.4884L107.701 47.415H104.636C104.371 47.415 104.116 47.3097 103.929 47.1221C103.741 46.9346 103.636 46.6803 103.636 46.415C103.636 46.1498 103.741 45.8955 103.929 45.7079C104.116 45.5204 104.371 45.415 104.636 45.415H110C110.195 45.4151 110.385 45.472 110.548 45.5788C110.711 45.6856 110.839 45.8376 110.917 46.0162C110.995 46.1948 111.018 46.3922 110.985 46.5841C110.952 46.7761 110.864 46.9543 110.731 47.0967L106.935 51.17H110C110.265 51.17 110.52 51.2754 110.707 51.4629C110.895 51.6505 111 51.9048 111 52.17C111 52.4353 110.895 52.6896 110.707 52.8771C110.52 53.0647 110.265 53.17 110 53.17Z" fill="white"/>
</svg>
