<svg width="154" height="154" viewBox="0 0 154 154" fill="none" xmlns="http://www.w3.org/2000/svg">
<circle cx="77" cy="77" r="71" fill="#EB0C77" stroke="white" stroke-width="12"/>
<path d="M70.1195 93.1855L69.1803 98.6616C68.9005 100.292 70.6172 101.54 72.0822 100.77L77 98.1845L81.9179 100.77C83.3709 101.534 85.1014 100.303 84.8198 98.6616L83.8805 93.1855L87.8591 89.3073C89.0438 88.1523 88.3888 86.1339 86.7507 85.8959L81.2523 85.0969L78.7934 80.1145C78.0611 78.6308 75.939 78.6301 75.2065 80.1145L72.7477 85.0969L67.2493 85.8959C65.6118 86.1338 64.9555 88.1518 66.1408 89.3073L70.1195 93.1855ZM74.3634 88.9041C75.0148 88.8095 75.5779 88.4004 75.8693 87.8101L77 85.5189L78.1308 87.8101C78.4222 88.4004 78.9852 88.8096 79.6367 88.9041L82.1653 89.2715L80.3355 91.055C79.8642 91.5145 79.649 92.1765 79.7604 92.8253L80.1924 95.3436C76.5742 93.4414 77.4283 93.4401 73.8078 95.3436L74.2398 92.8253C74.3512 92.1765 74.1359 91.5145 73.6647 91.055L71.8349 89.2715L74.3634 88.9041Z" fill="white"/>
<path d="M105.655 63.5202L95.2269 73H58.7732L48.3454 63.5202C47.5281 62.777 46.263 62.8374 45.5201 63.6547C44.7771 64.472 44.8374 65.7369 45.6546 66.4799L56 75.8848V107C56 108.105 56.8955 109 58 109H96C97.1045 109 98 108.105 98 107V75.8848L108.345 66.4799C109.163 65.7369 109.223 64.472 108.48 63.6547C107.737 62.8374 106.472 62.7772 105.655 63.5202ZM94 105H60V77H94V105Z" fill="white"/>
<path d="M53.1775 50.9919C53.2704 50.9839 62.5281 50.2418 68.2894 55.5215C71.415 58.3858 72.9999 62.5842 72.9999 67.9998C72.9999 69.1043 73.8954 69.9998 74.9999 69.9998C76.1044 69.9998 76.9999 69.1043 76.9999 67.9998C76.9999 61.4035 74.9709 56.2062 70.9693 52.5518C63.8865 46.0837 53.2676 46.9672 52.8188 47.008C51.7201 47.1079 50.9115 48.0784 51.0095 49.1773C51.1075 50.2762 52.0793 51.0888 53.1775 50.9919Z" fill="white"/>
<path d="M83 68.0002C83 69.1047 83.8955 70.0035 85 70.0035C86.1045 70.0035 87 69.1112 87 68.0067C87.0025 67.6238 87.1565 58.6085 95.3923 56.9615C96.4754 56.7448 97.1779 55.6912 96.9613 54.6081C96.7446 53.525 95.6909 52.823 94.6079 53.0391C89.8359 53.9935 86.3074 56.9127 84.404 61.4811C83.016 64.812 83 67.8716 83 68.0002Z" fill="white"/>
<path d="M101 56H102V57C102 58.1045 102.895 59 104 59C105.104 59 106 58.1045 106 57V56H107C108.104 56 109 55.1045 109 54C109 52.8955 108.104 52 107 52H106V51C106 49.8955 105.104 49 104 49C102.895 49 102 49.8955 102 51V52H101C99.8955 52 99 52.8955 99 54C99 55.1045 99.8955 56 101 56Z" fill="white"/>
<path d="M77 52H78V53C78 54.1045 78.8955 55 80 55C81.1045 55 82 54.1045 82 53V52H83C84.1045 52 85 51.1045 85 50C85 48.8955 84.1045 48 83 48H82V47C82 45.8955 81.1045 45 80 45C78.8955 45 78 45.8955 78 47V48H77C75.8955 48 75 48.8955 75 50C75 51.1045 75.8955 52 77 52Z" fill="white"/>
<path d="M61 67C62.1045 67 63 66.1045 63 65V64H64C65.1045 64 66 63.1045 66 62C66 60.8955 65.1045 60 64 60H63V59C63 57.8955 62.1045 57 61 57C59.8955 57 59 57.8955 59 59V60H58C56.8955 60 56 60.8955 56 62C56 63.1045 56.8955 64 58 64H59V65C59 66.1046 59.8955 67 61 67Z" fill="white"/>
</svg>
