<svg width="154" height="154" viewBox="0 0 154 154" fill="none" xmlns="http://www.w3.org/2000/svg">
<circle cx="77" cy="77" r="71" fill="#8AC640" stroke="white" stroke-width="12"/>
<path d="M115.68 92.0352H39.3191C38.5923 92.0352 38.0024 92.6236 38.0024 93.3518C38.0024 108.596 50.4046 121 65.6505 121H89.349C104.594 121 116.997 108.596 116.997 93.3518C116.997 92.6236 116.409 92.0352 115.68 92.0352ZM89.349 118.367H65.6505C52.2991 118.367 41.357 107.852 40.6698 94.6682H114.33C113.642 107.852 102.7 118.367 89.349 118.367Z" fill="white"/>
<path d="M105.154 60.4452C105.154 60.3491 105.152 60.253 105.143 60.1068C104.94 57.924 103.439 56.1308 101.458 55.458L102.948 53.9677C105.533 51.436 105.792 47.3862 103.53 44.5266C101.108 41.5828 96.7419 41.164 93.7993 43.5852C93.6321 43.7235 93.4702 43.8696 93.3082 44.0316L91.6889 45.6747C91.0095 43.7037 89.2124 42.2134 86.9979 42.008C84.0817 41.8488 81.6131 44.0868 81.4565 46.9859C81.4513 47.082 81.4499 47.1782 81.4499 47.2729V49.2913C80.6758 48.8423 79.7792 48.5843 78.8221 48.5829C78.7273 48.5829 78.6298 48.5855 78.4837 48.5934C75.6689 48.8554 73.5032 51.274 73.5505 54.0782V55.8688C72.7605 55.4119 71.86 55.167 70.9227 55.1656C70.828 55.1656 70.7318 55.1683 70.5857 55.1761C67.7695 55.4381 65.6038 57.8567 65.6512 60.6611V80.1859C65.6512 80.914 66.241 81.5025 66.9678 81.5025H89.3496C92.2539 81.5025 94.6159 79.1405 94.6145 76.2388C94.6145 75.2804 94.3577 74.3811 93.9075 73.6058H95.6862C98.5142 73.6834 100.933 71.486 101.197 68.6198C101.254 67.5481 100.985 66.5344 100.477 65.6734C101.659 65.5418 102.754 65.019 103.607 64.1685C104.602 63.1758 105.152 61.8539 105.154 60.4452ZM101.747 62.3042C101.25 62.7992 100.59 63.0718 99.8859 63.0718C99.8845 63.0718 99.8832 63.0718 99.8819 63.0718H95.9322C95.204 63.0718 94.6156 63.6617 94.6156 64.3884C94.6156 65.1151 95.204 65.705 95.9322 65.705L96.0771 65.709C97.5279 65.7866 98.6444 67.0295 98.5706 68.4277C98.4364 69.8786 97.2054 71.0017 95.7084 70.9713H89.3494C88.6213 70.9713 88.0328 71.5612 88.0328 72.2879C88.0328 73.0147 88.6213 73.6045 89.3494 73.6045C90.8016 73.6045 91.9826 74.7855 91.9826 76.2378C91.9826 77.69 90.8016 78.871 89.3494 78.871H68.2841V60.6387C68.2591 59.1812 69.3782 57.9345 70.7777 57.8027L70.9212 57.7987C72.3708 57.7999 73.549 58.9797 73.5504 60.4279V60.4372C73.5504 61.1639 74.1389 61.7538 74.8656 61.7538C74.867 61.7538 74.867 61.7538 74.867 61.7538C75.5937 61.7538 76.1822 61.1653 76.1836 60.4386V60.4373V54.0558C76.1586 52.5983 77.2777 51.3516 78.6772 51.2198L78.8194 51.2158C80.2703 51.2184 81.4487 52.398 81.45 53.8476V53.8555C81.45 54.5822 82.0385 55.1721 82.7653 55.1721C82.7667 55.1721 82.7667 55.1721 82.7667 55.1721C83.4934 55.1721 84.0819 54.5836 84.0833 53.8569V53.8555V47.2728L84.0873 47.1266C84.1637 45.677 85.3775 44.5607 86.8047 44.633C88.2582 44.7687 89.3759 46.0154 89.3483 47.4979V48.5906C89.3483 49.1238 89.671 49.6057 90.1659 49.8085C90.6571 50.0112 91.2284 49.8953 91.6023 49.5136L95.1741 45.889C95.2715 45.7929 95.3716 45.702 95.4756 45.6165C97.2977 44.1183 99.998 44.3789 101.483 46.18C102.889 47.96 102.727 50.4983 101.097 52.0954L97.6348 55.558C97.2583 55.9345 97.1451 56.5006 97.3491 56.9931C97.5518 57.4843 98.0337 57.8055 98.5655 57.8055H99.6583C99.6859 57.8055 99.7056 57.8055 99.728 57.8055C101.166 57.8055 102.387 58.9141 102.516 60.2991L102.52 60.444C102.519 61.1469 102.245 61.8078 101.747 62.3042Z" fill="white"/>
<path d="M95.0021 50.2874L58.1387 87.1509L60.0005 89.0127L96.864 52.1493L95.0021 50.2874Z" fill="white"/>
<path d="M89.3466 52.5459H86.7134V59.1288H89.3466V52.5459Z" fill="white"/>
<path d="M81.4472 59.1289H78.814V67.0284H81.4472V59.1289Z" fill="white"/>
<path d="M73.5478 65.6982H70.9146V74.9142H73.5478V65.6982Z" fill="white"/>
<path d="M94.6127 57.812H88.0298V60.4451H94.6127V57.812Z" fill="white"/>
<path d="M88.0299 65.6982H80.1304V68.3313H88.0299V65.6982Z" fill="white"/>
<path d="M81.4469 73.5981H72.231V76.2314H81.4469V73.5981Z" fill="white"/>
<path d="M62.5763 48.0908C62.5751 48.0882 62.5723 48.0855 62.5711 48.0829C60.7133 45.301 56.9374 44.5452 54.1568 46.4029C54.0699 46.4596 53.9843 46.5201 53.8869 46.5926L53.4129 46.9533L52.9575 46.6254C50.5481 44.3781 46.7603 44.469 44.4668 46.8493C43.3439 48.0132 42.7409 49.5457 42.7711 51.1638C42.8013 52.7819 43.4583 54.2906 44.621 55.4123C44.9593 55.7388 45.3358 56.0258 45.7413 56.2654L46.8499 57.1318V57.8059C46.8499 61.4357 49.803 64.3888 53.4328 64.3888C57.0627 64.3888 60.0158 61.4344 60.0144 57.8047V57.1306L61.1796 56.2208C63.7007 54.3077 64.3129 50.7359 62.5763 48.0908ZM59.5732 54.1352L57.888 55.4518C57.5694 55.7007 57.3824 56.0838 57.3824 56.4893V57.8059C57.3824 59.9835 55.6103 61.7556 53.4327 61.7556C51.2551 61.7556 49.483 59.9835 49.483 57.8059V56.4893C49.483 56.0838 49.2974 55.7007 48.9774 55.4518L47.2921 54.1352C47.2422 54.0957 47.1882 54.0602 47.1329 54.0286C46.8854 53.8877 46.6563 53.7166 46.4509 53.5177C45.7927 52.8831 45.4213 52.03 45.4042 51.1162C45.387 50.2025 45.728 49.3363 46.3627 48.6779C47.0328 47.9828 47.9294 47.6325 48.8272 47.6325C49.683 47.6325 50.5401 47.9498 51.2037 48.591C51.2485 48.6331 51.2958 48.674 51.3472 48.7108L52.6638 49.6588C53.1326 49.9971 53.7684 49.9893 54.2293 49.639L55.6171 48.595C56.3807 48.0842 57.2957 47.9052 58.1963 48.0829C59.0941 48.2619 59.8696 48.7794 60.3791 49.5404C61.356 51.0334 61.0083 53.0451 59.5732 54.1352Z" fill="white"/>
<path d="M69.5981 43.3164H66.9648V45.9495H69.5981V43.3164Z" fill="white"/>
<path d="M77.4973 85.4473H74.8643V88.0803H77.4973V85.4473Z" fill="white"/>
<path d="M109.098 49.9062V52.5395C110.55 52.5395 111.731 53.7205 111.731 55.1725C111.731 56.6246 110.55 57.8058 109.098 57.8058V60.4388C112.002 60.4388 114.364 58.0769 114.364 55.1725C114.364 52.2682 112.002 49.9062 109.098 49.9062Z" fill="white"/>
<path d="M43.2664 61.7617H40.6333V64.3949H43.2664V61.7617Z" fill="white"/>
<path d="M40.6355 56.4956H38.0024V59.1288H40.6355V56.4956Z" fill="white"/>
<path d="M89.3493 84.1357C86.445 84.1357 84.083 86.4977 84.083 89.402H86.7162C86.7162 87.9498 87.8972 86.7688 89.3493 86.7688C90.8015 86.7688 91.9825 87.9498 91.9825 89.402H94.6156C94.6156 86.4977 92.2536 84.1357 89.3493 84.1357Z" fill="white"/>
<path d="M53.8018 72.2866H53.636C53.0487 70.0181 50.9856 68.3369 48.5355 68.3369C46.0854 68.3369 44.021 70.0181 43.4351 72.2866H43.2692C40.3649 72.2866 38.0029 74.6486 38.0029 77.5529C38.0029 80.4572 40.3649 82.8192 43.2692 82.8192H53.8018C56.7061 82.8192 59.0681 80.4572 59.0681 77.5529C59.0681 74.6486 56.7061 72.2866 53.8018 72.2866ZM53.8018 80.1874H43.2691C41.8168 80.1874 40.6358 79.0064 40.6358 77.5543C40.6358 76.102 41.8168 74.9211 43.2691 74.9211H44.5857C45.3124 74.9211 45.9023 74.3312 45.9023 73.6044C45.9023 72.1522 47.0833 70.9714 48.5355 70.9714C49.9878 70.9714 51.1687 72.1524 51.1687 73.6044C51.1687 74.3312 51.7586 74.9211 52.4854 74.9211H53.802C55.2542 74.9211 56.4352 76.102 56.4352 77.5543C56.4349 79.0065 55.2539 80.1874 53.8018 80.1874Z" fill="white"/>
<path d="M51.1684 80.186H45.9021C45.1753 80.186 44.5854 80.7759 44.5854 81.5026V86.7689C44.5854 87.4971 45.1753 88.0856 45.9021 88.0856H51.1684C51.8951 88.0856 52.485 87.4971 52.485 86.7689V81.5026C52.485 80.7759 51.8951 80.186 51.1684 80.186ZM49.8517 85.4523H47.2187V82.8193H49.8519V85.4523H49.8517Z" fill="white"/>
<path d="M107.781 76.2363C105.604 76.2363 103.832 78.0084 103.832 80.186C103.832 82.3636 105.604 84.1357 107.781 84.1357C109.959 84.1357 111.731 82.3636 111.731 80.186C111.731 78.0084 109.959 76.2363 107.781 76.2363ZM107.781 81.5039C107.054 81.5039 106.465 80.9127 106.465 80.1872C106.465 79.4617 107.054 78.8706 107.781 78.8706C108.508 78.8706 109.098 79.4605 109.098 80.1872C109.098 80.9141 108.508 81.5039 107.781 81.5039Z" fill="white"/>
<path d="M107.781 70.9702C102.701 70.9702 98.5654 75.1043 98.5654 80.1862C98.5654 85.2681 102.701 89.4022 107.781 89.4022C112.862 89.4022 116.997 85.2681 116.997 80.1862C116.997 75.1043 112.862 70.9702 107.781 70.9702ZM107.781 86.7703C104.152 86.7703 101.199 83.816 101.199 80.1874C101.199 76.5576 104.152 73.6045 107.781 73.6045C111.411 73.6045 114.364 76.5576 114.364 80.1874C114.364 83.8173 111.411 86.7703 107.781 86.7703Z" fill="white"/>
</svg>
