<svg width="154" height="154" viewBox="0 0 154 154" fill="none" xmlns="http://www.w3.org/2000/svg">
<circle cx="77" cy="77" r="71" fill="#EB0C77" stroke="white" stroke-width="12"/>
<path d="M112.843 110.969H102.39C101.971 109.261 100.641 107.883 98.8732 107.441L96.3594 106.812L99.5368 91.4015C100.147 88.4405 98.4664 85.4255 95.5577 84.4202C88.4485 81.953 90.8801 83.0453 84.3404 81.5518C86.6161 80.1686 89.7508 78.1892 90.729 77.2109C91.8748 76.0636 95.3619 72.5717 95.3619 69.232C95.3619 68.2905 95.0774 67.2532 94.5155 66.139L112.77 47.8845C113.563 47.0918 114 46.0376 114 44.9164C114 41.2004 109.471 39.3114 106.834 41.9483C106.382 42.3998 106.382 43.1318 106.834 43.5833C107.286 44.0348 108.018 44.0348 108.469 43.5833C109.654 42.3988 111.687 43.2479 111.687 44.9163C111.687 45.4198 111.491 45.8931 111.135 46.2492L89.861 67.5234C89.1305 68.2538 89.6578 69.4972 90.6786 69.4972C91.3057 69.4972 91.4876 69.1671 92.7633 67.8914C92.9502 68.3874 93.0495 68.8406 93.0495 69.232C93.0495 70.8132 91.7183 72.9479 89.0871 75.5827C88.1509 76.519 83.8983 79.1522 81.0567 80.822L77.1452 80.3331C76.5113 80.2531 75.9338 80.7032 75.8546 81.3369C75.7754 81.9705 76.2249 82.5483 76.8585 82.6275L81.0927 83.1569C90.926 85.5681 87.0567 83.9434 94.8189 86.6116C96.5978 87.2306 97.6526 89.0893 97.2726 90.9347L95.8022 98.0657H92.0185L92.6289 92.7151C92.7024 92.0711 92.2314 91.4912 91.5846 91.4326C77.7857 90.1807 79.0793 91.7005 74.3443 90.0522C74.0339 89.9474 73.5628 89.7642 73.2324 89.5932C70.4058 88.1301 69.7979 83.8929 70.6911 81.5108C71.786 80.7358 72.8768 79.8391 73.9342 78.8435C74.3991 78.4057 74.4211 77.674 73.9833 77.2091C73.5456 76.7443 72.814 76.7223 72.3489 77.1599C71.1566 78.2826 69.6663 79.4363 69.5719 79.4581C69.2808 79.5259 69.1999 79.6214 68.0495 80.3771C65.1748 82.2661 65.7324 81.899 50.8241 94.4301L41.7946 100.454C40.2138 101.509 39.5893 103.483 40.2759 105.255C42.1477 110.085 42.1449 110.231 42.6661 110.969H41.16C40.5215 110.969 40.0038 111.486 40.0038 112.125C40.0038 112.763 40.5215 113.281 41.16 113.281H112.843C113.482 113.281 114 112.763 114 112.125C114 111.486 113.482 110.969 112.843 110.969ZM68.0063 83.19C67.8206 86.114 68.9298 89.3894 71.3466 91.1367C67.0472 93.1372 61.2782 95.4328 54.2016 99.0825L52.8947 95.7103C64.3496 86.0802 66.2641 84.4106 68.0063 83.19ZM43.0779 102.378L50.9607 97.1188L52.1696 100.238L46.8032 103.656C46.4095 103.907 46.2051 104.37 46.2852 104.829L47.3519 110.959C46.01 111.056 44.702 110.277 44.1911 108.959L42.4321 104.42C42.14 103.666 42.4056 102.826 43.0779 102.378ZM48.6954 105.192C53.9526 101.844 54.7391 101.001 67.8486 95.2357C70.2123 94.1963 72.2743 93.288 74.0664 92.3947C78.8136 93.9022 78.4751 92.6297 90.1968 93.6315C88.5141 108.379 88.9332 105.509 88.2401 108.282C88.0113 109.197 88.1084 110.138 88.5008 110.969H49.7006L48.6954 105.192ZM92.1433 110.969C91.0308 110.969 90.213 109.924 90.4834 108.843C91.2245 105.878 90.9022 107.846 91.7543 100.378H95.325L93.8708 107.431C93.7457 108.038 94.1213 108.636 94.7226 108.786L98.3123 109.684C99.033 109.864 99.6142 110.343 99.9378 110.969H92.1433Z" fill="white"/>
<path d="M80.1755 52.3957C80.3396 54.6677 81.271 56.7727 82.821 58.4445C81.7851 62.6905 80.1854 66.601 78.0592 70.0752C77.7257 70.6199 77.897 71.3315 78.4417 71.6649C78.9896 72.0004 79.7001 71.8236 80.0315 71.2824C82.0965 67.9082 83.6921 64.1533 84.7853 60.0989C85.3645 60.4748 85.978 60.7903 86.6139 61.0413L87.2585 61.5243L85.5603 63.2225C84.8298 63.9529 85.3571 65.1962 86.3779 65.1962C86.6737 65.1962 86.9697 65.0834 87.1955 64.8576C99.2095 52.8436 77.7981 74.2549 102.018 50.0352C104.197 47.8556 105.398 44.9578 105.398 41.8754C105.398 41.2369 104.88 40.7192 104.242 40.7192C103.603 40.7192 103.085 41.2369 103.085 41.8754C103.085 44.3401 102.126 46.6574 100.383 48.4002L95.3622 53.4209C95.3622 50.7358 95.5597 49.2037 94.3869 47.1385C92.3992 43.6354 87.8989 42.3454 84.2663 44.173C82.5266 41.1998 77.9974 41.606 76.8483 44.8592L76.0728 47.0622C75.1193 49.7602 77.2549 52.5593 80.1755 52.3957ZM92.0048 47.7217C90.9179 49.2374 89.1626 50.1268 87.2835 50.1523C85.5959 50.1758 85.7096 52.4674 87.2007 52.4674C89.3689 52.4674 91.4658 51.6215 93.004 50.104C93.0656 50.5543 93.0495 50.2679 93.0495 55.733L89.3864 59.3961C87.8786 59.1906 86.5143 58.5824 85.4144 57.7062L86.3874 55.2913C86.6483 54.6439 86.2805 53.8947 85.5706 53.733C85.0265 53.6087 84.4573 53.8929 84.2423 54.4271L83.6857 55.8087C82.8911 54.5833 82.4587 53.1666 82.4587 51.6693C82.4587 51.5222 82.4424 51.5619 82.5404 51.4824C83.156 50.9837 83.5783 50.3416 83.807 49.6969C84.5819 47.4974 84.736 47.1677 84.7938 46.5317C87.1118 45.0221 90.2949 45.4969 92.0048 47.7217ZM78.2533 47.8311L79.0288 45.628C79.281 44.9143 79.9728 44.4661 80.7149 44.4661C81.9288 44.4661 82.7952 45.6105 82.4018 46.726C81.6484 48.8647 81.5987 49.4202 80.859 49.8437C79.3811 50.6774 77.7363 49.2951 78.2533 47.8311Z" fill="white"/>
<path d="M75.5598 75.5016C76.0563 75.9008 76.7883 75.8185 77.1892 75.3198C77.2481 75.2467 77.3069 75.1734 77.3657 75.0988C77.7611 74.5975 77.6753 73.8705 77.1739 73.4751C76.6726 73.0795 75.9455 73.1654 75.5502 73.6669C75.4959 73.7358 75.4415 73.8033 75.379 73.8811C74.9789 74.3788 75.0622 75.1014 75.5598 75.5016Z" fill="white"/>
</svg>
