<svg width="154" height="154" viewBox="0 0 154 154" fill="none" xmlns="http://www.w3.org/2000/svg">
<circle cx="77" cy="77" r="71" fill="#8AC640" stroke="white" stroke-width="12"/>
<path d="M107.464 74.8187C111.13 72.8442 113.627 68.9692 113.627 64.5218C113.627 58.0777 108.384 52.835 101.94 52.835C95.496 52.835 90.2533 58.0777 90.2533 64.5218C90.2533 68.094 91.8645 71.2972 94.3981 73.4426H94.0228C87.938 73.4426 82.9876 68.4923 82.9876 62.4074C82.9876 59.106 80.3015 56.4201 77.0003 56.4201C73.6987 56.4201 71.0129 59.106 71.0129 62.4074C71.0129 68.4923 66.0626 73.4426 59.9778 73.4426H59.6025C62.1362 71.2972 63.7473 68.0942 63.7473 64.5218C63.7473 58.0777 58.5046 52.835 52.0604 52.835C45.6162 52.835 40.3731 58.0777 40.3731 64.5218C40.3731 68.9691 42.8702 72.8442 46.5358 74.8187C42.811 76.8026 40.2695 80.7266 40.2695 85.2329V108.565C40.2695 109.358 40.912 110 41.7043 110H60.937C61.7293 110 62.3718 109.358 62.3718 108.565V85.2938C68.1481 84.6937 73.2964 81.948 77.0034 77.8698C80.8337 82.09 86.0127 84.7112 91.6282 85.2938V108.565C91.6282 109.358 92.2706 110 93.0629 110H112.296C113.088 110 113.73 109.358 113.73 108.565V85.2329C113.73 80.7266 111.189 76.8024 107.464 74.8187ZM93.1228 64.5218C93.1228 59.6599 97.078 55.7045 101.94 55.7045C106.802 55.7045 110.757 59.6599 110.757 64.5218C110.757 69.3837 106.802 73.3392 101.94 73.3392C97.078 73.3392 93.1228 69.3837 93.1228 64.5218ZM43.2427 64.5218C43.2427 59.6599 47.1981 55.7045 52.06 55.7045C56.9219 55.7045 60.8773 59.6599 60.8773 64.5218C60.8773 69.3837 56.9219 73.3392 52.06 73.3392C47.1981 73.3392 43.2427 69.3837 43.2427 64.5218ZM59.9773 82.5479H55.8394C55.0471 82.5479 54.4046 83.1902 54.4046 83.9827C54.4046 84.7751 55.0471 85.4174 55.8394 85.4174H59.5021V107.131H43.1391V85.2329C43.1391 80.3139 47.141 76.3122 52.06 76.3122H59.9776C67.6446 76.3122 73.8822 70.0744 73.8822 62.4074C73.8822 60.6882 75.2808 59.2896 77 59.2896C78.7191 59.2896 80.1177 60.6882 80.1177 62.4074C80.1177 73.5129 71.0829 82.5479 59.9773 82.5479ZM110.861 107.131H94.4977V85.4174H98.1606C98.9529 85.4174 99.5954 84.7751 99.5954 83.9827C99.5954 83.1902 98.9529 82.5479 98.1606 82.5479H94.0227C88.1601 82.5479 82.6658 80.0247 78.8226 75.5965C80.1652 73.6836 81.2245 71.5582 81.9386 69.2813C84.335 73.4775 88.8539 76.3122 94.0224 76.3122H101.94C106.859 76.3122 110.861 80.3141 110.861 85.2329V107.131H110.861Z" fill="white"/>
<path d="M76.9997 51.7767C77.792 51.7767 78.4345 51.1343 78.4345 50.3419V45.4348C78.4345 44.6424 77.792 44 76.9997 44C76.2074 44 75.5649 44.6424 75.5649 45.4348V50.3419C75.5649 51.1343 76.2074 51.7767 76.9997 51.7767Z" fill="white"/>
<path d="M69.6588 52.6935C69.9247 53.1538 70.4068 53.4111 70.9028 53.4111C71.1461 53.4111 71.3929 53.3491 71.6187 53.2186C72.305 52.8225 72.5402 51.945 72.1439 51.2587L69.6903 47.0091C69.2941 46.3229 68.4166 46.0878 67.7303 46.4839C67.0441 46.8801 66.8089 47.7576 67.2052 48.4438L69.6588 52.6935Z" fill="white"/>
<path d="M82.3817 53.2187C82.6077 53.3492 82.8543 53.4111 83.0977 53.4111C83.5935 53.4111 84.0759 53.1539 84.3416 52.6936L86.7952 48.4439C87.1915 47.7577 86.9564 46.8802 86.2701 46.484C85.5837 46.0877 84.7063 46.3229 84.3102 47.0091L81.8566 51.2588C81.4603 51.9451 81.6954 52.8226 82.3817 53.2187Z" fill="white"/>
<path d="M85.0793 89.1014C82.6647 87.2485 79.4444 87.2234 76.9999 88.911C74.5555 87.2231 71.335 87.2488 68.9207 89.1012C66.5854 90.8931 64.8585 94.7178 67.677 99.5995C69.8125 103.299 74.1644 106.801 76.6286 107.461C76.7503 107.494 76.8751 107.51 76.9999 107.51C77.1247 107.51 77.2496 107.494 77.3712 107.461C79.8355 106.801 84.1873 103.299 86.323 99.5995C89.1415 94.718 87.4144 90.8933 85.0793 89.1014ZM83.8378 98.1649C82.1443 101.098 78.7805 103.841 76.9999 104.563C75.2193 103.841 71.8555 101.098 70.1622 98.1649C68.2746 94.8953 69.1855 92.5152 70.6676 91.3778C71.3245 90.8738 72.1974 90.5426 73.1227 90.5426C74.0819 90.5426 75.097 90.8986 75.9852 91.7869C76.5457 92.347 77.4539 92.347 78.0144 91.7869C79.7599 90.0414 81.9945 90.3512 83.3322 91.3778C84.8145 92.5153 85.7254 94.8955 83.8378 98.1649Z" fill="white"/>
</svg>
