<svg width="154" height="154" viewBox="0 0 154 154" fill="none" xmlns="http://www.w3.org/2000/svg">
<circle cx="77" cy="77" r="71" fill="#EF5B23" stroke="white" stroke-width="12"/>
<path d="M79.8751 33.875C62.5594 33.875 48.4495 47.864 48.2522 65.1336L40.6414 79.2679C40.2877 79.9248 40.1104 80.6624 40.127 81.4084C40.1437 82.1543 40.3535 82.8832 40.7362 83.5238C41.1188 84.1644 41.6611 84.6948 42.31 85.0631C42.959 85.4314 43.6924 85.625 44.4385 85.625H49.6876V95.6875C49.6898 97.5931 50.4478 99.42 51.7952 100.767C53.1426 102.115 54.9696 102.873 56.8751 102.875H65.5001C65.8813 102.875 66.2466 103.027 66.5161 103.297C66.7856 103.566 66.9372 103.931 66.9376 104.312V120.125H69.8126V104.312C69.8113 103.169 69.3566 102.073 68.5481 101.265C67.7396 100.456 66.6435 100.001 65.5001 100H56.8751C55.7318 99.9987 54.6357 99.5439 53.8272 98.7355C53.0187 97.927 52.5639 96.8308 52.5626 95.6875V82.75H44.4385C44.1898 82.75 43.9453 82.6855 43.729 82.5627C43.5127 82.44 43.3319 82.2632 43.2044 82.0496C43.0768 81.8361 43.0069 81.5931 43.0013 81.3445C42.9958 81.0958 43.0549 80.8499 43.1728 80.6309L51.1251 65.8624V65.5C51.1251 49.6471 64.0224 36.75 79.8751 36.75C95.7279 36.75 108.625 49.6471 108.625 65.5V68.8084C108.635 72.5854 107.897 76.327 106.451 79.8165C105.006 83.3061 102.883 86.4742 100.204 89.1377L96.3552 92.9869C95.6858 93.6528 95.155 94.4449 94.7937 95.3172C94.4323 96.1896 94.2476 97.125 94.2501 98.0692V120.125H97.1251V98.0692C97.1236 97.5027 97.2345 96.9415 97.4513 96.418C97.6681 95.8946 97.9865 95.4194 98.3882 95.0198L102.237 91.1707C105.183 88.2409 107.519 84.7559 109.109 80.9174C110.699 77.0789 111.511 72.9632 111.5 68.8084V65.5C111.5 48.0619 97.3133 33.875 79.8751 33.875Z" fill="white"/>
<path d="M84.1877 76.6514C83.1976 76.6487 82.2169 76.8424 81.3021 77.2213C80.3874 77.6002 79.5569 78.1567 78.8588 78.8587L77.0002 80.7174L75.1416 78.8587C73.7283 77.4454 71.8114 76.6514 69.8126 76.6514C67.8139 76.6514 65.897 77.4454 64.4837 78.8588C63.0703 80.2721 62.2764 82.189 62.2764 84.1878C62.2764 86.1866 63.0704 88.1034 64.4838 89.5168L77.0002 102.033L89.5166 89.5168C90.5706 88.4628 91.2884 87.12 91.5792 85.658C91.87 84.1961 91.7208 82.6808 91.1504 81.3037C90.58 79.9266 89.614 78.7496 88.3747 77.9215C87.1353 77.0934 85.6782 76.6514 84.1877 76.6514ZM87.4838 87.4837L77.0002 97.9674L66.5166 87.4837C65.6425 86.6095 65.1514 85.4239 65.1514 84.1877C65.1515 82.9514 65.6426 81.7658 66.5167 80.8917C67.3909 80.0175 68.5765 79.5265 69.8128 79.5265C71.049 79.5265 72.2346 80.0176 73.1088 80.8918L77.0002 84.7831L80.8916 80.8918C81.3245 80.4589 81.8383 80.1156 82.4039 79.8813C82.9694 79.6471 83.5755 79.5265 84.1876 79.5265C84.7998 79.5265 85.4059 79.647 85.9714 79.8813C86.537 80.1155 87.0508 80.4589 87.4837 80.8917C87.9165 81.3245 88.2599 81.8384 88.4941 82.4039C88.7284 82.9694 88.849 83.5756 88.849 84.1877C88.849 84.7998 88.7284 85.4059 88.4942 85.9715C88.2599 86.537 87.9166 87.0509 87.4838 87.4837Z" fill="white"/>
<path d="M90.712 46.8123L75.5628 40.3198V56.2794L52.9839 78.8582L55.0168 80.8913L67.6566 68.2514L72.6878 73.2827L77.0003 68.9702L81.3128 73.2827L86.3441 68.2514L98.9839 80.8913L101.017 78.8582L78.4378 56.2794V52.0726L90.712 46.8123ZM78.4378 44.6797L83.4136 46.8123L78.4378 48.9448V44.6797ZM84.3111 66.2185L81.3128 69.2169L77.0003 64.9044L72.6878 69.2169L69.6895 66.2185L77.0003 58.9077L84.3111 66.2185Z" fill="white"/>
</svg>
