<svg width="154" height="154" viewBox="0 0 154 154" fill="none" xmlns="http://www.w3.org/2000/svg">
<path d="M77 148C116.212 148 148 116.212 148 77C148 37.7878 116.212 6 77 6C37.7878 6 6 37.7878 6 77C6 116.212 37.7878 148 77 148Z" fill="#EB0C77" stroke="white" stroke-width="12"/>
<path d="M65.1033 44.3105C71.5183 41.962 78.4842 41.5605 85.1266 43.1563C91.769 44.7522 97.7921 48.2744 102.44 53.2809H96.0011C95.5815 53.2809 95.1791 53.4476 94.8824 53.7443C94.5857 54.0409 94.419 54.4434 94.419 54.8629C94.419 55.2825 94.5857 55.6849 94.8824 55.9816C95.1791 56.2783 95.5815 56.445 96.0011 56.445H105.493C105.913 56.445 106.315 56.2783 106.612 55.9816C106.909 55.6849 107.076 55.2825 107.076 54.8629V45.3705C107.076 44.9509 106.909 44.5485 106.612 44.2518C106.315 43.9551 105.913 43.7885 105.493 43.7885C105.074 43.7885 104.672 43.9551 104.375 44.2518C104.078 44.5485 103.911 44.9509 103.911 45.3705V50.2275C98.8104 45.0855 92.3414 41.5148 85.272 39.9388C78.2026 38.3628 70.8295 38.8478 64.0275 41.3363C63.6443 41.4872 63.3351 41.7817 63.1656 42.157C62.9961 42.5324 62.9796 42.959 63.1197 43.3463C63.2598 43.7336 63.5454 44.051 63.9158 44.231C64.2862 44.4111 64.7122 44.4396 65.1033 44.3105Z" fill="white"/>
<path d="M42.2105 77.0115C42.1935 71.5404 43.4753 66.1434 45.9506 61.2643C48.426 56.3851 52.0241 52.1632 56.4491 48.9456V54.8626C56.4491 55.2822 56.6158 55.6846 56.9125 55.9813C57.2092 56.278 57.6116 56.4446 58.0311 56.4446C58.4507 56.4446 58.8531 56.278 59.1498 55.9813C59.4465 55.6846 59.6132 55.2822 59.6132 54.8626V45.3702C59.6132 44.9506 59.4465 44.5482 59.1498 44.2515C58.8531 43.9548 58.4507 43.7881 58.0311 43.7881H48.5387C48.1191 43.7881 47.7167 43.9548 47.42 44.2515C47.1233 44.5482 46.9567 44.9506 46.9567 45.3702C46.9567 45.7897 47.1233 46.1922 47.42 46.4888C47.7167 46.7855 48.1191 46.9522 48.5387 46.9522H53.8387C47.443 51.8617 42.7816 58.6847 40.5336 66.4277C38.2855 74.1707 38.5682 82.4291 41.3403 90.0003C41.4831 90.3946 41.7766 90.7161 42.1564 90.8941C42.5361 91.0721 42.9709 91.092 43.3654 90.9496C46.1656 89.9212 42.2105 87.2792 42.2105 77.0115Z" fill="white"/>
<path d="M88.9293 109.713C82.5143 112.062 75.5484 112.463 68.906 110.867C62.2636 109.271 56.2405 105.749 51.5925 100.743H58.0315C58.4511 100.743 58.8535 100.576 59.1502 100.279C59.4469 99.9827 59.6136 99.5803 59.6136 99.1607C59.6136 98.7411 59.4469 98.3387 59.1502 98.042C58.8535 97.7453 58.4511 97.5786 58.0315 97.5786H48.5391C48.1195 97.5786 47.7171 97.7453 47.4204 98.042C47.1237 98.3387 46.957 98.7411 46.957 99.1607V108.653C46.957 109.073 47.1237 109.475 47.4204 109.772C47.7171 110.068 48.1195 110.235 48.5391 110.235C48.9587 110.235 49.3611 110.068 49.6578 109.772C49.9545 109.475 50.1212 109.073 50.1212 108.653V103.796C55.2222 108.938 61.6912 112.509 68.7606 114.085C75.83 115.661 83.2031 115.176 90.0051 112.687C90.3883 112.536 90.6975 112.242 90.867 111.867C91.0365 111.491 91.053 111.065 90.9129 110.677C90.7728 110.29 90.4872 109.973 90.1168 109.793C89.7464 109.613 89.3204 109.584 88.9293 109.713Z" fill="white"/>
<path d="M105.493 107.071H100.193C106.589 102.162 111.251 95.3384 113.499 87.5955C115.747 79.8525 115.464 71.594 112.692 64.0228C112.549 63.6285 112.256 63.3071 111.876 63.1291C111.496 62.9511 111.061 62.9311 110.667 63.0736C107.867 64.102 111.822 66.744 111.822 77.0116C111.839 82.4827 110.557 87.8798 108.082 92.7589C105.606 97.6381 102.008 101.86 97.5831 105.078V99.1606C97.5831 98.741 97.4164 98.3386 97.1197 98.0419C96.823 97.7452 96.4206 97.5785 96.001 97.5785C95.5814 97.5785 95.179 97.7452 94.8823 98.0419C94.5856 98.3386 94.4189 98.741 94.4189 99.1606V108.653C94.4189 109.073 94.5856 109.475 94.8823 109.772C95.179 110.068 95.5814 110.235 96.001 110.235H105.493C105.701 110.235 105.907 110.194 106.099 110.115C106.291 110.035 106.465 109.919 106.612 109.772C106.759 109.625 106.876 109.45 106.955 109.258C107.035 109.066 107.075 108.861 107.075 108.653C107.075 108.445 107.035 108.24 106.955 108.048C106.876 107.856 106.759 107.681 106.612 107.534C106.465 107.387 106.291 107.271 106.099 107.191C105.907 107.112 105.701 107.071 105.493 107.071Z" fill="white"/>
<g filter="url(#filter0_d_222_5)">
<path d="M83.3441 108.653C84.6028 108.653 85.81 108.153 86.7001 107.263C87.5902 106.373 88.0903 105.166 88.0903 103.907V72.2657C88.0903 71.8461 88.2569 71.4437 88.5536 71.147C88.8503 70.8503 89.2527 70.6836 89.6723 70.6836H100.747C102.006 70.6836 103.213 70.1836 104.103 69.2935C104.993 68.4034 105.493 67.1962 105.493 65.9374C105.493 64.6786 104.993 63.4714 104.103 62.5813C103.213 61.6913 102.006 61.1912 100.747 61.1912H84.0718C85.2992 59.8273 86.105 58.1368 86.3916 56.3245C86.6783 54.5121 86.4335 52.6555 85.687 50.9794C84.9404 49.3033 83.7241 47.8794 82.1852 46.8802C80.6462 45.8809 78.8507 45.3491 77.0158 45.3491C75.1809 45.3491 73.3853 45.8809 71.8464 46.8802C70.3075 47.8794 69.0911 49.3033 68.3446 50.9794C67.598 52.6555 67.3533 54.5121 67.6399 56.3245C67.9266 58.1368 68.7324 59.8273 69.9597 61.1912H54.8668C53.608 61.1912 52.4008 61.6913 51.5107 62.5813C50.6207 63.4714 50.1206 64.6786 50.1206 65.9374C50.1206 67.1962 50.6207 68.4034 51.5107 69.2935C52.4008 70.1836 53.608 70.6836 54.8668 70.6836H64.3592C64.7788 70.6836 65.1812 70.8503 65.4779 71.147C65.7746 71.4437 65.9413 71.8461 65.9413 72.2657V103.907C65.9413 105.166 66.4413 106.373 67.3314 107.263C68.2215 108.153 69.4287 108.653 70.6875 108.653C71.9463 108.653 73.1535 108.153 74.0436 107.263C74.9337 106.373 75.4337 105.166 75.4337 103.907V89.6684C75.4337 89.2489 75.6004 88.8465 75.8971 88.5498C76.1938 88.2531 76.5962 88.0864 77.0158 88.0864C77.4354 88.0864 77.8378 88.2531 78.1345 88.5498C78.4312 88.8465 78.5978 89.2489 78.5978 89.6684V103.907C78.5978 105.166 79.0979 106.373 79.988 107.263C80.8781 108.153 82.0853 108.653 83.3441 108.653ZM70.6875 54.8629C70.6875 53.6113 71.0586 52.3878 71.754 51.3471C72.4494 50.3065 73.4377 49.4953 74.594 49.0164C75.7504 48.5374 77.0228 48.4121 78.2504 48.6563C79.4779 48.9004 80.6055 49.5031 81.4905 50.3882C82.3756 51.2732 82.9783 52.4008 83.2225 53.6283C83.4666 54.8559 83.3413 56.1283 82.8623 57.2847C82.3834 58.441 81.5723 59.4293 80.5316 60.1247C79.4909 60.8201 78.2674 61.1912 77.0158 61.1912C75.3374 61.1912 73.7278 60.5245 72.541 59.3377C71.3542 58.1509 70.6875 56.5413 70.6875 54.8629ZM77.0158 84.9222C75.757 84.9222 74.5498 85.4223 73.6597 86.3124C72.7696 87.2025 72.2696 88.4097 72.2696 89.6684V103.907C72.2696 104.327 72.1029 104.729 71.8062 105.026C71.5095 105.322 71.1071 105.489 70.6875 105.489C70.2679 105.489 69.8655 105.322 69.5688 105.026C69.2721 104.729 69.1054 104.327 69.1054 103.907V72.2657C69.1054 71.0069 68.6054 69.7997 67.7153 68.9096C66.8252 68.0195 65.618 67.5195 64.3592 67.5195H54.8668C54.4472 67.5195 54.0448 67.3528 53.7481 67.0561C53.4514 66.7594 53.2847 66.357 53.2847 65.9374C53.2847 65.5178 53.4514 65.1154 53.7481 64.8187C54.0448 64.522 54.4472 64.3553 54.8668 64.3553H100.747C101.166 64.3553 101.569 64.522 101.866 64.8187C102.162 65.1154 102.329 65.5178 102.329 65.9374C102.329 66.357 102.162 66.7594 101.866 67.0561C101.569 67.3528 101.166 67.5195 100.747 67.5195H89.6723C88.4136 67.5195 87.2063 68.0195 86.3162 68.9096C85.4262 69.7997 84.9261 71.0069 84.9261 72.2657V103.907C84.9261 104.327 84.7594 104.729 84.4627 105.026C84.166 105.322 83.7636 105.489 83.3441 105.489C82.9245 105.489 82.5221 105.322 82.2254 105.026C81.9287 104.729 81.762 104.327 81.762 103.907V89.6684C81.762 88.4097 81.2619 87.2025 80.3719 86.3124C79.4818 85.4223 78.2745 84.9222 77.0158 84.9222Z" fill="white"/>
</g>
<defs>
<filter id="filter0_d_222_5" x="46.1206" y="45.3491" width="63.3726" height="71.3042" filterUnits="userSpaceOnUse" color-interpolation-filters="sRGB">
<feFlood flood-opacity="0" result="BackgroundImageFix"/>
<feColorMatrix in="SourceAlpha" type="matrix" values="0 0 0 0 0 0 0 0 0 0 0 0 0 0 0 0 0 0 127 0" result="hardAlpha"/>
<feOffset dy="4"/>
<feGaussianBlur stdDeviation="2"/>
<feComposite in2="hardAlpha" operator="out"/>
<feColorMatrix type="matrix" values="0 0 0 0 0 0 0 0 0 0 0 0 0 0 0 0 0 0 0.25 0"/>
<feBlend mode="normal" in2="BackgroundImageFix" result="effect1_dropShadow_222_5"/>
<feBlend mode="normal" in="SourceGraphic" in2="effect1_dropShadow_222_5" result="shape"/>
</filter>
</defs>
</svg>
