<svg width="60" height="60" viewBox="0 0 60 60" fill="none" xmlns="http://www.w3.org/2000/svg">
<path d="M58.9999 30C58.9999 46.632 45.0099 59.987 28.1519 58.943C13.7079 58.048 1.95191 46.292 1.05791 31.848C0.0129075 14.99 13.3679 1 29.9999 1C34.5679 1 38.8929 2.054 42.7399 3.941C43.7709 4.447 44.1489 5.731 43.5799 6.729L43.5759 6.736C43.0499 7.658 41.9019 8.001 40.9499 7.532C37.1319 5.652 32.7669 4.737 28.1599 5.066C16.0599 5.929 6.17791 15.634 5.10091 27.717C3.76091 42.756 15.8129 55.379 30.6639 54.991C43.3819 54.659 53.9979 44.573 54.9289 31.885C55.1709 28.589 54.7739 25.398 53.8299 22.456C53.5309 21.523 53.9659 20.516 54.8419 20.078C55.9359 19.531 57.2769 20.078 57.6479 21.243C58.5259 24.004 58.9999 26.946 58.9999 30Z" fill="#AEE090"/>
<path d="M15.4099 22.472L31.2239 43.869C32.4179 45.485 34.8479 45.345 35.8549 43.603L58.7069 4.04498C59.8969 1.98498 57.1819 -0.0860164 55.5629 1.64798L31.7549 27.15L17.9409 19.504C16.0739 18.471 14.1339 20.745 15.4099 22.472Z" fill="#6BB577"/>
</svg>
