<svg width="45" height="45" viewBox="0 0 45 45" fill="none" xmlns="http://www.w3.org/2000/svg">
<path d="M16.2027 14.2821H15.215C14.2496 14.2821 13.4668 13.4994 13.4668 12.5339V11.4902C13.4668 10.5245 14.2496 9.7417 15.215 9.7417H16.2027V14.2821Z" fill="#FAC5AA"/>
<path d="M28.9922 14.2821H29.9799C30.9454 14.2821 31.7281 13.4994 31.7281 12.5339V11.4902C31.7281 10.5245 30.9454 9.7417 29.9799 9.7417H28.9922V14.2821Z" fill="#FABAA1"/>
<path d="M37.6359 37.5766H7.43244C6.60469 37.5766 5.99838 36.7976 6.20163 35.9949L7.60342 30.4615C8.02708 28.7892 9.24725 27.4327 10.8653 26.835L21.0884 23.0588C22.0216 22.7141 23.0471 22.7141 23.9799 23.0588L34.203 26.835C35.8211 27.4327 37.0413 28.7892 37.4649 30.4615L38.8667 35.9949C39.07 36.7972 38.4637 37.5766 37.6359 37.5766Z" fill="#87DBFF"/>
<path d="M38.8663 35.995L37.4645 30.4613C37.0409 28.7893 35.821 27.4328 34.2026 26.8351L23.9798 23.0586C23.0467 22.7139 22.0212 22.7139 21.088 23.0586L20.8467 23.1478L30.8284 26.8351C32.4469 27.4328 33.6667 28.7893 34.0904 30.4613L35.4921 35.995C35.6954 36.7973 35.0891 37.5767 34.2613 37.5767H37.6355C38.4633 37.5767 39.0696 36.7973 38.8663 35.995Z" fill="#6FC7FF"/>
<path d="M18.5652 23.9907L15.7856 25.0176L18.8714 28.0862C19.3057 28.5181 19.9999 28.5401 20.4603 28.1367L22.534 26.3202L18.5652 23.9907Z" fill="#57AFFF"/>
<path d="M26.4683 23.978L29.2825 25.0176L26.0975 28.0934C25.6553 28.5205 24.9574 28.5305 24.5031 28.1161L22.5342 26.3202L26.4683 23.978Z" fill="#57AFFF"/>
<path d="M22.5342 35.9084C22.2135 35.9084 21.9536 35.6485 21.9536 35.3275V29.1371C21.9536 28.816 22.2135 28.5562 22.5342 28.5562C22.8548 28.5562 23.1147 28.816 23.1147 29.1371V35.3275C23.1147 35.6482 22.8548 35.9084 22.5342 35.9084Z" fill="#57AFFF"/>
<path d="M26.4684 23.9781V19.5732H18.5654V23.9908L22.5342 26.3202L26.4684 23.9781Z" fill="#FABAA1"/>
<path d="M30.0632 7.4477C30.0632 7.70451 30.0501 7.96337 30.023 8.22498L29.91 9.74178L29.3449 17.2681C29.1877 18.7904 28.1563 20.0816 26.7079 20.5709L25.5165 20.9726L23.7628 21.5641C22.9368 21.8436 22.0418 21.8384 21.2188 21.5497L18.4698 20.5856C17.0447 20.0854 16.035 18.8083 15.8764 17.3062L15.2979 9.74178L15.1832 8.23975C14.7661 4.2675 17.5336 0.758743 21.3287 0.10849C21.4317 0.0899506 21.5364 0.074501 21.6408 0.0611114C21.6943 0.054245 21.7475 0.0480652 21.8011 0.042572C21.8344 0.0387954 21.867 0.0357056 21.9003 0.0326157C21.9281 0.0302124 21.9566 0.0271225 21.9855 0.0247192C22.0146 0.0226593 22.0449 0.0202561 22.0744 0.0188828C22.1115 0.0157929 22.1489 0.0133896 22.1866 0.0116729C22.2021 0.0109863 22.2169 0.0102997 22.2323 0.00961304C22.2756 0.00720977 22.3199 0.00549316 22.3648 0.00411987C22.3834 0.0030899 22.4019 0.00240326 22.4211 0.00240326C22.4816 0.000686646 22.542 0 22.6024 0C26.7621 0 30.0632 3.38482 30.0632 7.4477Z" fill="#FDD7BD"/>
<path d="M30.0632 7.4477C30.0632 7.70451 30.0502 7.96337 30.0231 8.22498L29.9101 9.74178L29.345 17.2681C29.1878 18.7904 28.1564 20.0816 26.7079 20.5709L25.5166 20.9726C26.228 20.3371 26.6963 19.4475 26.7986 18.4612L27.3637 9.74178L27.4766 8.22498C27.5038 7.96337 27.5168 7.70485 27.5168 7.4477C27.5168 3.80985 24.8691 0.715485 21.3291 0.10849C21.4328 0.0906372 21.5365 0.0751877 21.6408 0.0611114C21.6944 0.054245 21.748 0.0480652 21.8012 0.042572C21.8345 0.0387954 21.8671 0.0357056 21.9004 0.0326157C21.9282 0.0302124 21.9567 0.0271225 21.9855 0.0247192C22.0151 0.0226593 22.0449 0.0202561 22.0745 0.0185395C22.1115 0.0154495 22.149 0.0130463 22.1867 0.0116729C22.2022 0.0109863 22.2169 0.00995634 22.2324 0.00926974C22.2756 0.00720977 22.3199 0.00549316 22.3649 0.00411987C22.3834 0.0030899 22.402 0.00240326 22.4212 0.00240326C22.4816 0.000686646 22.5421 0 22.6025 0C26.7622 0 30.0632 3.38482 30.0632 7.4477Z" fill="#FAC5AA"/>
<path d="M30.0629 7.4477C30.0629 7.70451 30.0499 7.96337 30.0227 8.22498L29.9098 9.74178H27.6367C26.5294 9.68136 24.7057 9.43966 22.6997 8.46806C21.1547 7.71996 20.0327 6.79539 19.2922 6.07029C19.183 5.96317 18.999 6.01398 18.9609 6.1623C18.8105 6.74732 18.4425 7.73952 17.5244 8.58101C16.6696 9.36413 15.7501 9.63879 15.2976 9.74178L15.1833 8.23975C14.7202 3.83457 18.1736 0 22.6022 0C26.7619 0 30.0629 3.38482 30.0629 7.4477Z" fill="#5C546A"/>
<path d="M22.6021 0C22.1675 0 21.7421 0.0374222 21.3291 0.108147C24.8694 0.715485 27.5165 3.80951 27.5165 7.4477C27.5165 7.70451 27.5034 7.96303 27.4763 8.22498L27.3647 9.72359C27.4591 9.73045 27.5508 9.73663 27.6366 9.74144H29.9098L30.0227 8.22498C30.0498 7.96337 30.0629 7.70451 30.0629 7.4477C30.0629 3.38482 26.7618 0 22.6021 0Z" fill="#4F495B"/>
<path d="M20.0558 12.056C20.0558 12.4303 19.7526 12.7338 19.3784 12.7338C19.0042 12.7338 18.7007 12.4303 18.7007 12.056C18.7007 11.6818 19.0042 11.3787 19.3784 11.3787C19.7526 11.3787 20.0558 11.6818 20.0558 12.056Z" fill="#5C546A"/>
<path d="M26.0729 12.056C26.0729 12.4303 25.7697 12.7338 25.3955 12.7338C25.0213 12.7338 24.7178 12.4303 24.7178 12.056C24.7178 11.6818 25.0213 11.3787 25.3955 11.3787C25.7697 11.3787 26.0729 11.6818 26.0729 12.056Z" fill="#5C546A"/>
<path d="M25.0532 16.9711C24.8795 16.7016 24.5204 16.624 24.2505 16.7978C23.8087 17.0824 23.3188 17.2503 22.8275 17.2894L22.3794 17.2901C21.7741 17.242 21.2822 17.0089 20.9588 16.8036C20.6879 16.6316 20.3291 16.7119 20.1574 16.9825C19.9854 17.2533 20.0658 17.6121 20.3367 17.7841C20.8317 18.0983 21.6172 18.4612 22.6029 18.4612C22.6582 18.4612 22.7142 18.4601 22.7705 18.4577C23.5035 18.4272 24.2327 18.1906 24.8795 17.7738C25.1494 17.6001 25.2269 17.2406 25.0532 16.9711Z" fill="#5C546A"/>
<path d="M5.60497 31.253C5.21873 31.253 4.90527 30.9395 4.90527 30.5533V26.8389C4.90527 25.9689 5.29803 25.1628 5.98296 24.6265L10.6717 20.8843C10.9738 20.6429 11.414 20.6924 11.6553 20.9945C11.8964 21.2966 11.8469 21.7368 11.5448 21.9778L6.85088 25.7244C6.50207 25.9977 6.305 26.4022 6.305 26.8389V30.5533C6.305 30.9395 5.99155 31.253 5.60497 31.253Z" fill="#868491"/>
<path d="M43.8746 40.0284H1.04851C0.469322 40.0284 0 39.559 0 38.9799V34.5627C0 33.9835 0.469666 33.5142 1.04851 33.5142H43.8746C44.4538 33.5142 44.9231 33.9835 44.9231 34.5627V38.9799C44.9231 39.559 44.4538 40.0284 43.8746 40.0284Z" fill="#E6BE94"/>
<path d="M3.69629 45V40.0334H41.2263V45" fill="#F7CDA9"/>
<path d="M3.69629 40.0334V42.5167H36.3504C37.7216 42.5167 38.8337 43.6284 38.8337 45H41.2263V40.0338H3.69629V40.0334Z" fill="#DDB08C"/>
<path d="M7.93753 33.514H3.27246V31.5901C3.27246 31.0174 3.73663 30.5532 4.3093 30.5532H6.90104C7.4737 30.5532 7.93787 31.0171 7.93787 31.5901V33.514H7.93753Z" fill="#5C546A"/>
<path d="M11.1496 21.4854L11.0662 21.3765C10.6926 20.889 10.7853 20.1907 11.2732 19.8175L12.5194 18.8631C13.0073 18.4895 13.7053 18.5822 14.0788 19.0697L14.1622 19.1786C14.5358 19.6664 14.4431 20.3644 13.9552 20.7379L12.709 21.6924C12.2211 22.0656 11.5231 21.9732 11.1496 21.4854Z" fill="#5C546A"/>
</svg>
