<svg width="55" height="55" viewBox="0 0 55 55" fill="none" xmlns="http://www.w3.org/2000/svg">
<path d="M55 27.5C55 27.1659 54.994 26.8331 54.9823 26.5019C54.4569 11.7764 42.3538 0 27.5 0C12.6462 0 0.543125 11.7764 0.017832 26.5019C0.00601562 26.8331 0 27.1659 0 27.5C0 42.6878 14.1262 54.0021 27.5 54.0021C41.1162 54.0021 55 42.6878 55 27.5Z" fill="#FF5876"/>
<path d="M27.5 53.004C12.6465 53.004 0.545488 41.2272 0.0199805 26.502C0.00805664 26.8335 0 27.1657 0 27.5C0 42.6879 12.3122 55 27.5 55C42.6878 55 55 42.6879 55 27.5C55 27.1657 54.9919 26.8335 54.9801 26.5021C54.4545 41.2273 42.3535 53.004 27.5 53.004Z" fill="#E6485D"/>
<path d="M50.4261 26.5019C49.9036 14.2916 39.8393 4.55273 27.5003 4.55273C15.1612 4.55273 5.09689 14.2916 4.57439 26.5019C4.56021 26.8329 4.57428 48.9876 27.5003 48.9876C50.4262 48.9876 50.4403 26.8329 50.4261 26.5019Z" fill="#E4EEF9"/>
<path d="M27.5 48.4512C15.1611 48.4512 5.09833 38.7122 4.57562 26.502C4.56144 26.833 4.55273 27.1654 4.55273 27.4999C4.55273 40.1733 14.8266 50.4471 27.5 50.4471C40.1734 50.4471 50.4472 40.1734 50.4472 27.5C50.4472 27.1655 50.4384 26.833 50.4244 26.5021C49.9016 38.7123 39.8389 48.4512 27.5 48.4512Z" fill="#D5E0F2"/>
<path d="M35.8354 19.4486C35.1813 18.8035 34.1281 18.8107 33.4831 19.4647L29.5801 23.4218L29.9723 25.3057L31.7954 25.913L35.8516 21.8008C36.4965 21.1468 36.4893 20.0937 35.8354 19.4486Z" fill="#405B6C"/>
<path d="M25.1456 23.5734L16.2938 15.6852C15.6079 15.074 14.5566 15.1346 13.9454 15.8205C13.3343 16.5063 13.3948 17.5577 14.0807 18.1688L23.1068 26.2124L24.9877 25.585L25.1456 23.5734Z" fill="#405B6C"/>
<path d="M39.2771 38.2247C39.0883 38.2247 38.8986 38.1608 38.7426 38.0299L28.2074 29.1807C27.8558 28.8853 27.81 28.3606 28.1055 28.009C28.4009 27.6572 28.9254 27.6116 29.2772 27.9071L39.8124 36.7564C40.164 37.0518 40.2097 37.5764 39.9143 37.928C39.7499 38.1239 39.5143 38.2247 39.2771 38.2247Z" fill="#86DCFF"/>
<path d="M23.1069 26.2124L24.6603 27.5966L26.6551 26.9188L26.5469 24.8221L25.1458 23.5735C24.1709 24.1593 23.4331 25.0978 23.1069 26.2124Z" fill="#2D4456"/>
<path d="M29.5799 23.4221L28.2593 24.761V27.3892H30.3396L31.7954 25.9133C31.3954 24.831 30.5975 23.9423 29.5799 23.4221Z" fill="#2D4456"/>
<path d="M30.1624 26.5018C29.7583 25.4244 28.7188 24.6575 27.5002 24.6575C26.2816 24.6575 25.2421 25.4244 24.8379 26.5018C24.7215 26.8124 24.8302 29.3444 27.5002 29.3444C30.1701 29.3444 30.2788 26.8124 30.1624 26.5018Z" fill="#FF5876"/>
<path d="M27.5002 28.3464C26.2816 28.3464 25.2425 27.5794 24.8384 26.502C24.7218 26.8125 24.6577 27.1486 24.6577 27.4999C24.6577 29.0698 25.9303 30.3423 27.5001 30.3423C29.07 30.3423 30.3425 29.0697 30.3425 27.4999C30.3425 27.1486 30.2784 26.8125 30.1619 26.502C29.7579 27.5793 28.7188 28.3464 27.5002 28.3464Z" fill="#E6485D"/>
<path d="M28.3335 10.0517V7.47072C28.3335 7.01053 27.9605 6.63745 27.5003 6.63745C27.0401 6.63745 26.667 7.01053 26.667 7.47072V10.0517C26.667 10.5119 27.04 10.885 27.5003 10.885C27.9606 10.885 28.3335 10.5119 28.3335 10.0517Z" fill="#405B6C"/>
<path d="M26.667 44.9483V47.5293C26.667 47.9895 27.04 48.3626 27.5003 48.3626C27.9606 48.3626 28.3335 47.9895 28.3335 47.5293V44.9483C28.3335 44.4881 27.9605 44.115 27.5003 44.115C27.0401 44.115 26.667 44.4881 26.667 44.9483Z" fill="#405B6C"/>
<path d="M47.5295 28.3333C47.9898 28.3333 48.3628 27.9602 48.3628 27.5C48.3628 27.0398 47.9897 26.6667 47.5295 26.6667H44.9485C44.4883 26.6667 44.1152 27.0398 44.1152 27.5C44.1152 27.9602 44.4883 28.3333 44.9485 28.3333H47.5295Z" fill="#405B6C"/>
<path d="M7.47097 26.6667C7.01066 26.6667 6.6377 27.0398 6.6377 27.5C6.6377 27.9602 7.01066 28.3333 7.47097 28.3333H10.052C10.5123 28.3333 10.8853 27.9602 10.8853 27.5C10.8853 27.0398 10.5122 26.6667 10.052 26.6667H7.47097Z" fill="#405B6C"/>
</svg>
