<svg width="32" height="32" viewBox="0 0 32 32" fill="none" xmlns="http://www.w3.org/2000/svg">
<g clip-path="url(#clip0_28_278)">
<path fill-rule="evenodd" clip-rule="evenodd" d="M16.0001 -3.05176e-05C7.17169 -3.05176e-05 9.15527e-05 7.17157 9.15527e-05 16C9.1559e-05 24.8284 7.17169 32 16.0001 32C24.8285 32 32.0001 24.8284 32.0001 16C32.0001 7.17157 24.8285 -3.05176e-05 16.0001 -3.05176e-05ZM16.0001 1.37509C24.0854 1.37509 30.6251 7.91468 30.6251 16C30.6251 24.0853 24.0854 30.625 16.0001 30.625C7.9148 30.625 1.37509 24.0853 1.37509 16C1.37509 7.91468 7.9148 1.37509 16.0001 1.37509Z" fill="#1A6C99"/>
<path fill-rule="evenodd" clip-rule="evenodd" d="M16.0001 24.5C15.8178 24.5 15.6429 24.5724 15.514 24.7013C15.3851 24.8303 15.3126 25.0051 15.3126 25.1875V28.25C15.3126 28.4323 15.3851 28.6072 15.514 28.7361C15.6429 28.865 15.8178 28.9375 16.0001 28.9375C16.1825 28.9375 16.3573 28.865 16.4863 28.7361C16.6152 28.6072 16.6876 28.4323 16.6876 28.25V25.1875C16.6876 25.0051 16.6152 24.8303 16.4863 24.7013C16.3573 24.5724 16.1825 24.5 16.0001 24.5Z" fill="#1A6C99"/>
<path fill-rule="evenodd" clip-rule="evenodd" d="M3.75035 15.3127C3.56802 15.3127 3.39315 15.3851 3.26423 15.5141C3.1353 15.643 3.06287 15.8179 3.06287 16.0002C3.06287 16.1825 3.1353 16.3574 3.26423 16.4863C3.39315 16.6153 3.56802 16.6877 3.75035 16.6877H6.81276C6.90305 16.6877 6.99246 16.67 7.07589 16.6354C7.15931 16.6009 7.23511 16.5502 7.29896 16.4864C7.36281 16.4225 7.41346 16.3468 7.44802 16.2633C7.48258 16.1799 7.50037 16.0905 7.50037 16.0002C7.50037 15.9099 7.48258 15.8205 7.44802 15.7371C7.41346 15.6537 7.36281 15.5779 7.29896 15.514C7.23511 15.4502 7.15931 15.3996 7.07589 15.365C6.99246 15.3305 6.90305 15.3127 6.81276 15.3127H3.75035Z" fill="#1A6C99"/>
<path fill-rule="evenodd" clip-rule="evenodd" d="M16.0001 3.06284C15.8178 3.06284 15.6429 3.13527 15.514 3.2642C15.3851 3.39313 15.3126 3.568 15.3126 3.75034V6.81284C15.3126 6.99517 15.3851 7.17004 15.514 7.29897C15.6429 7.4279 15.8178 7.50033 16.0001 7.50034C16.1825 7.50033 16.3573 7.4279 16.4863 7.29897C16.6152 7.17004 16.6876 6.99517 16.6876 6.81284V3.75034C16.6876 3.568 16.6152 3.39313 16.4863 3.2642C16.3573 3.13527 16.1825 3.06284 16.0001 3.06284Z" fill="#1A6C99"/>
<path fill-rule="evenodd" clip-rule="evenodd" d="M25.1875 15.3126C25.0052 15.3126 24.8303 15.385 24.7014 15.514C24.5724 15.6429 24.5 15.8178 24.5 16.0001C24.5 16.1824 24.5724 16.3573 24.7014 16.4862C24.8303 16.6152 25.0052 16.6876 25.1875 16.6876H28.25C28.4323 16.6876 28.6072 16.6152 28.7361 16.4862C28.8651 16.3573 28.9375 16.1824 28.9375 16.0001C28.9375 15.8178 28.8651 15.6429 28.7361 15.514C28.6072 15.385 28.4323 15.3126 28.25 15.3126H25.1875Z" fill="#1A6C99"/>
<path fill-rule="evenodd" clip-rule="evenodd" d="M23.6564 7.65646C23.5661 7.65646 23.4767 7.67425 23.3932 7.70881C23.3098 7.74337 23.234 7.79402 23.1702 7.85788L16 15.0279L11.8925 10.9205C11.8286 10.8566 11.7528 10.806 11.6694 10.7715C11.586 10.7369 11.4966 10.7191 11.4063 10.7191C11.316 10.7191 11.2266 10.7369 11.1432 10.7715C11.0598 10.806 10.984 10.8566 10.9202 10.9205C10.8563 10.9843 10.8057 11.0601 10.7711 11.1435C10.7366 11.2269 10.7188 11.3163 10.7188 11.4066C10.7188 11.4969 10.7366 11.5863 10.7711 11.6697C10.8057 11.7531 10.8563 11.8289 10.9202 11.8928L15.5139 16.4864C15.6429 16.6153 15.8177 16.6877 16.0001 16.6877C16.1824 16.6877 16.3573 16.6153 16.4862 16.4864L24.1425 8.83016C24.2063 8.76632 24.257 8.69053 24.2915 8.60712C24.3261 8.52371 24.3438 8.43431 24.3438 8.34402C24.3438 8.25374 24.3261 8.16433 24.2915 8.08092C24.257 7.99751 24.2063 7.92172 24.1425 7.85788C24.0136 7.72894 23.8387 7.65649 23.6564 7.65646Z" fill="#1A6C99"/>
</g>
<defs>
<clipPath id="clip0_28_278">
<rect width="32" height="32" fill="white"/>
</clipPath>
</defs>
</svg>
